<svg class="rich-terminal" viewBox="0 0 1629 1026.0" xmlns="http://www.w3.org/2000/svg">
    <!-- Generated with Rich https://www.textualize.io -->
    <style>

    @font-face {
        font-family: "Fira Code";
        src: local("FiraCode-Regular"),
                url("https://cdnjs.cloudflare.com/ajax/libs/firacode/6.2.0/woff2/FiraCode-Regular.woff2") format("woff2"),
                url("https://cdnjs.cloudflare.com/ajax/libs/firacode/6.2.0/woff/FiraCode-Regular.woff") format("woff");
        font-style: normal;
        font-weight: 400;
    }
    @font-face {
        font-family: "Fira Code";
        src: local("FiraCode-Bold"),
                url("https://cdnjs.cloudflare.com/ajax/libs/firacode/6.2.0/woff2/FiraCode-Bold.woff2") format("woff2"),
                url("https://cdnjs.cloudflare.com/ajax/libs/firacode/6.2.0/woff/FiraCode-Bold.woff") format("woff");
        font-style: bold;
        font-weight: 700;
    }

    .terminal-3479858794-matrix {
        font-family: Fira Code, monospace;
        font-size: 20px;
        line-height: 24.4px;
        font-variant-east-asian: full-width;
    }

    .terminal-3479858794-title {
        font-size: 18px;
        font-weight: bold;
        font-family: arial;
    }

    .terminal-3479858794-r1 { fill: #c5c8c6 }
.terminal-3479858794-r2 { fill: #e0e0e0 }
.terminal-3479858794-r3 { fill: #a0a3a6 }
.terminal-3479858794-r4 { fill: #e0e0e0;font-weight: bold }
.terminal-3479858794-r5 { fill: #1e1e1e }
.terminal-3479858794-r6 { fill: #ddedf9;font-weight: bold }
.terminal-3479858794-r7 { fill: #272727 }
.terminal-3479858794-r8 { fill: #003054 }
.terminal-3479858794-r9 { fill: #ffa62b;font-weight: bold }
.terminal-3479858794-r10 { fill: #495259 }
    </style>

    <defs>
    <clipPath id="terminal-3479858794-clip-terminal">
      <rect x="0" y="0" width="1609.3999999999999" height="975.0" />
    </clipPath>
    <clipPath id="terminal-3479858794-line-0">
    <rect x="0" y="1.5" width="1610.4" height="24.65"/>
            </clipPath>
<clipPath id="terminal-3479858794-line-1">
    <rect x="0" y="25.9" width="1610.4" height="24.65"/>
            </clipPath>
<clipPath id="terminal-3479858794-line-2">
    <rect x="0" y="50.3" width="1610.4" height="24.65"/>
            </clipPath>
<clipPath id="terminal-3479858794-line-3">
    <rect x="0" y="74.7" width="1610.4" height="24.65"/>
            </clipPath>
<clipPath id="terminal-3479858794-line-4">
    <rect x="0" y="99.1" width="1610.4" height="24.65"/>
            </clipPath>
<clipPath id="terminal-3479858794-line-5">
    <rect x="0" y="123.5" width="1610.4" height="24.65"/>
            </clipPath>
<clipPath id="terminal-3479858794-line-6">
    <rect x="0" y="147.9" width="1610.4" height="24.65"/>
            </clipPath>
<clipPath id="terminal-3479858794-line-7">
    <rect x="0" y="172.3" width="1610.4" height="24.65"/>
            </clipPath>
<clipPath id="terminal-3479858794-line-8">
    <rect x="0" y="196.7" width="1610.4" height="24.65"/>
            </clipPath>
<clipPath id="terminal-3479858794-line-9">
    <rect x="0" y="221.1" width="1610.4" height="24.65"/>
            </clipPath>
<clipPath id="terminal-3479858794-line-10">
    <rect x="0" y="245.5" width="1610.4" height="24.65"/>
            </clipPath>
<clipPath id="terminal-3479858794-line-11">
    <rect x="0" y="269.9" width="1610.4" height="24.65"/>
            </clipPath>
<clipPath id="terminal-3479858794-line-12">
    <rect x="0" y="294.3" width="1610.4" height="24.65"/>
            </clipPath>
<clipPath id="terminal-3479858794-line-13">
    <rect x="0" y="318.7" width="1610.4" height="24.65"/>
            </clipPath>
<clipPath id="terminal-3479858794-line-14">
    <rect x="0" y="343.1" width="1610.4" height="24.65"/>
            </clipPath>
<clipPath id="terminal-3479858794-line-15">
    <rect x="0" y="367.5" width="1610.4" height="24.65"/>
            </clipPath>
<clipPath id="terminal-3479858794-line-16">
    <rect x="0" y="391.9" width="1610.4" height="24.65"/>
            </clipPath>
<clipPath id="terminal-3479858794-line-17">
    <rect x="0" y="416.3" width="1610.4" height="24.65"/>
            </clipPath>
<clipPath id="terminal-3479858794-line-18">
    <rect x="0" y="440.7" width="1610.4" height="24.65"/>
            </clipPath>
<clipPath id="terminal-3479858794-line-19">
    <rect x="0" y="465.1" width="1610.4" height="24.65"/>
            </clipPath>
<clipPath id="terminal-3479858794-line-20">
    <rect x="0" y="489.5" width="1610.4" height="24.65"/>
            </clipPath>
<clipPath id="terminal-3479858794-line-21">
    <rect x="0" y="513.9" width="1610.4" height="24.65"/>
            </clipPath>
<clipPath id="terminal-3479858794-line-22">
    <rect x="0" y="538.3" width="1610.4" height="24.65"/>
            </clipPath>
<clipPath id="terminal-3479858794-line-23">
    <rect x="0" y="562.7" width="1610.4" height="24.65"/>
            </clipPath>
<clipPath id="terminal-3479858794-line-24">
    <rect x="0" y="587.1" width="1610.4" height="24.65"/>
            </clipPath>
<clipPath id="terminal-3479858794-line-25">
    <rect x="0" y="611.5" width="1610.4" height="24.65"/>
            </clipPath>
<clipPath id="terminal-3479858794-line-26">
    <rect x="0" y="635.9" width="1610.4" height="24.65"/>
            </clipPath>
<clipPath id="terminal-3479858794-line-27">
    <rect x="0" y="660.3" width="1610.4" height="24.65"/>
            </clipPath>
<clipPath id="terminal-3479858794-line-28">
    <rect x="0" y="684.7" width="1610.4" height="24.65"/>
            </clipPath>
<clipPath id="terminal-3479858794-line-29">
    <rect x="0" y="709.1" width="1610.4" height="24.65"/>
            </clipPath>
<clipPath id="terminal-3479858794-line-30">
    <rect x="0" y="733.5" width="1610.4" height="24.65"/>
            </clipPath>
<clipPath id="terminal-3479858794-line-31">
    <rect x="0" y="757.9" width="1610.4" height="24.65"/>
            </clipPath>
<clipPath id="terminal-3479858794-line-32">
    <rect x="0" y="782.3" width="1610.4" height="24.65"/>
            </clipPath>
<clipPath id="terminal-3479858794-line-33">
    <rect x="0" y="806.7" width="1610.4" height="24.65"/>
            </clipPath>
<clipPath id="terminal-3479858794-line-34">
    <rect x="0" y="831.1" width="1610.4" height="24.65"/>
            </clipPath>
<clipPath id="terminal-3479858794-line-35">
    <rect x="0" y="855.5" width="1610.4" height="24.65"/>
            </clipPath>
<clipPath id="terminal-3479858794-line-36">
    <rect x="0" y="879.9" width="1610.4" height="24.65"/>
            </clipPath>
<clipPath id="terminal-3479858794-line-37">
    <rect x="0" y="904.3" width="1610.4" height="24.65"/>
            </clipPath>
<clipPath id="terminal-3479858794-line-38">
    <rect x="0" y="928.7" width="1610.4" height="24.65"/>
            </clipPath>
    </defs>

    <rect fill="#292929" stroke="rgba(255,255,255,0.35)" stroke-width="1" x="1" y="1" width="1627" height="1024" rx="8"/><text class="terminal-3479858794-title" fill="#c5c8c6" text-anchor="middle" x="813" y="27">Praxis</text>
            <g transform="translate(26,22)">
            <circle cx="0" cy="0" r="7" fill="#ff5f57"/>
            <circle cx="22" cy="0" r="7" fill="#febc2e"/>
            <circle cx="44" cy="0" r="7" fill="#28c840"/>
            </g>
        
    <g transform="translate(9, 41)" clip-path="url(#terminal-3479858794-clip-terminal)">
    <rect fill="#242f38" x="0" y="1.5" width="12.2" height="24.65" shape-rendering="crispEdges"/><rect fill="#242f38" x="12.2" y="1.5" width="12.2" height="24.65" shape-rendering="crispEdges"/><rect fill="#242f38" x="24.4" y="1.5" width="61" height="24.65" shape-rendering="crispEdges"/><rect fill="#242f38" x="85.4" y="1.5" width="12.2" height="24.65" shape-rendering="crispEdges"/><rect fill="#242f38" x="97.6" y="1.5" width="475.8" height="24.65" shape-rendering="crispEdges"/><rect fill="#242f38" x="573.4" y="1.5" width="73.2" height="24.65" shape-rendering="crispEdges"/><rect fill="#242f38" x="646.6" y="1.5" width="36.6" height="24.65" shape-rendering="crispEdges"/><rect fill="#242f38" x="683.2" y="1.5" width="329.4" height="24.65" shape-rendering="crispEdges"/><rect fill="#242f38" x="1012.6" y="1.5" width="475.8" height="24.65" shape-rendering="crispEdges"/><rect fill="#242f38" x="1488.4" y="1.5" width="12.2" height="24.65" shape-rendering="crispEdges"/><rect fill="#242f38" x="1500.6" y="1.5" width="0" height="24.65" shape-rendering="crispEdges"/><rect fill="#242f38" x="1500.6" y="1.5" width="97.6" height="24.65" shape-rendering="crispEdges"/><rect fill="#242f38" x="1598.2" y="1.5" width="12.2" height="24.65" shape-rendering="crispEdges"/><rect fill="#2d3740" x="0" y="25.9" width="183" height="24.65" shape-rendering="crispEdges"/><rect fill="#2d3740" x="183" y="25.9" width="122" height="24.65" shape-rendering="crispEdges"/><rect fill="#2d3740" x="305" y="25.9" width="97.6" height="24.65" shape-rendering="crispEdges"/><rect fill="#2d3740" x="402.6" y="25.9" width="122" height="24.65" shape-rendering="crispEdges"/><rect fill="#2d3740" x="524.6" y="25.9" width="439.2" height="24.65" shape-rendering="crispEdges"/><rect fill="#fea62b" x="963.8" y="25.9" width="12.2" height="24.65" shape-rendering="crispEdges"/><rect fill="#1e1e1e" x="976" y="25.9" width="634.4" height="24.65" shape-rendering="crispEdges"/><rect fill="#0178d4" x="0" y="50.3" width="183" height="24.65" shape-rendering="crispEdges"/><rect fill="#0178d4" x="183" y="50.3" width="122" height="24.65" shape-rendering="crispEdges"/><rect fill="#0178d4" x="305" y="50.3" width="97.6" height="24.65" shape-rendering="crispEdges"/><rect fill="#0178d4" x="402.6" y="50.3" width="122" height="24.65" shape-rendering="crispEdges"/><rect fill="#0178d4" x="524.6" y="50.3" width="439.2" height="24.65" shape-rendering="crispEdges"/><rect fill="#fea62b" x="963.8" y="50.3" width="12.2" height="24.65" shape-rendering="crispEdges"/><rect fill="#1e1e1e" x="976" y="50.3" width="24.4" height="24.65" shape-rendering="crispEdges"/><rect fill="#1e1e1e" x="1000.4" y="50.3" width="36.6" height="24.65" shape-rendering="crispEdges"/><rect fill="#1e1e1e" x="1037" y="50.3" width="170.8" height="24.65" shape-rendering="crispEdges"/><rect fill="#1e1e1e" x="1207.8" y="50.3" width="378.2" height="24.65" shape-rendering="crispEdges"/><rect fill="#1e1e1e" x="1586" y="50.3" width="24.4" height="24.65" shape-rendering="crispEdges"/><rect fill="#272727" x="0" y="74.7" width="183" height="24.65" shape-rendering="crispEdges"/><rect fill="#272727" x="183" y="74.7" width="122" height="24.65" shape-rendering="crispEdges"/><rect fill="#272727" x="305" y="74.7" width="97.6" height="24.65" shape-rendering="crispEdges"/><rect fill="#272727" x="402.6" y="74.7" width="122" height="24.65" shape-rendering="crispEdges"/><rect fill="#272727" x="524.6" y="74.7" width="439.2" height="24.65" shape-rendering="crispEdges"/><rect fill="#fea62b" x="963.8" y="74.7" width="12.2" height="24.65" shape-rendering="crispEdges"/><rect fill="#1e1e1e" x="976" y="74.7" width="24.4" height="24.65" shape-rendering="crispEdges"/><rect fill="#1e1e1e" x="1000.4" y="74.7" width="61" height="24.65" shape-rendering="crispEdges"/><rect fill="#1e1e1e" x="1061.4" y="74.7" width="158.6" height="24.65" shape-rendering="crispEdges"/><rect fill="#1e1e1e" x="1220" y="74.7" width="366" height="24.65" shape-rendering="crispEdges"/><rect fill="#1e1e1e" x="1586" y="74.7" width="24.4" height="24.65" shape-rendering="crispEdges"/><rect fill="#003054" x="0" y="99.1" width="12.2" height="24.65" shape-rendering="crispEdges"/><rect fill="#003054" x="12.2" y="99.1" width="12.2" height="24.65" shape-rendering="crispEdges"/><rect fill="#003054" x="24.4" y="99.1" width="12.2" height="24.65" shape-rendering="crispEdges"/><rect fill="#003054" x="36.6" y="99.1" width="12.2" height="24.65" shape-rendering="crispEdges"/><rect fill="#003054" x="48.8" y="99.1" width="12.2" height="24.65" shape-rendering="crispEdges"/><rect fill="#003054" x="61" y="99.1" width="12.2" height="24.65" shape-rendering="crispEdges"/><rect fill="#003054" x="73.2" y="99.1" width="12.2" height="24.65" shape-rendering="crispEdges"/><rect fill="#003054" x="85.4" y="99.1" width="12.2" height="24.65" shape-rendering="crispEdges"/><rect fill="#003054" x="97.6" y="99.1" width="12.2" height="24.65" shape-rendering="crispEdges"/><rect fill="#003054" x="109.8" y="99.1" width="12.2" height="24.65" shape-rendering="crispEdges"/><rect fill="#003054" x="122" y="99.1" width="12.2" height="24.65" shape-rendering="crispEdges"/><rect fill="#003054" x="134.2" y="99.1" width="12.2" height="24.65" shape-rendering="crispEdges"/><rect fill="#003054" x="146.4" y="99.1" width="12.2" height="24.65" shape-rendering="crispEdges"/><rect fill="#003054" x="158.6" y="99.1" width="12.2" height="24.65" shape-rendering="crispEdges"/><rect fill="#003054" x="170.8" y="99.1" width="12.2" height="24.65" shape-rendering="crispEdges"/><rect fill="#003054" x="183" y="99.1" width="12.2" height="24.65" shape-rendering="crispEdges"/><rect fill="#003054" x="195.2" y="99.1" width="12.2" height="24.65" shape-rendering="crispEdges"/><rect fill="#003054" x="207.4" y="99.1" width="12.2" height="24.65" shape-rendering="crispEdges"/><rect fill="#003054" x="219.6" y="99.1" width="12.2" height="24.65" shape-rendering="crispEdges"/><rect fill="#003054" x="231.8" y="99.1" width="12.2" height="24.65" shape-rendering="crispEdges"/><rect fill="#003054" x="244" y="99.1" width="12.2" height="24.65" shape-rendering="crispEdges"/><rect fill="#003054" x="256.2" y="99.1" width="12.2" height="24.65" shape-rendering="crispEdges"/><rect fill="#003054" x="268.4" y="99.1" width="12.2" height="24.65" shape-rendering="crispEdges"/><rect fill="#003054" x="280.6" y="99.1" width="12.2" height="24.65" shape-rendering="crispEdges"/><rect fill="#003054" x="292.8" y="99.1" width="12.2" height="24.65" shape-rendering="crispEdges"/><rect fill="#003054" x="305" y="99.1" width="12.2" height="24.65" shape-rendering="crispEdges"/><rect fill="#003054" x="317.2" y="99.1" width="12.2" height="24.65" shape-rendering="crispEdges"/><rect fill="#003054" x="329.4" y="99.1" width="12.2" height="24.65" shape-rendering="crispEdges"/><rect fill="#003054" x="341.6" y="99.1" width="12.2" height="24.65" shape-rendering="crispEdges"/><rect fill="#003054" x="353.8" y="99.1" width="12.2" height="24.65" shape-rendering="crispEdges"/><rect fill="#003054" x="366" y="99.1" width="12.2" height="24.65" shape-rendering="crispEdges"/><rect fill="#003054" x="378.2" y="99.1" width="12.2" height="24.65" shape-rendering="crispEdges"/><rect fill="#003054" x="390.4" y="99.1" width="12.2" height="24.65" shape-rendering="crispEdges"/><rect fill="#003054" x="402.6" y="99.1" width="12.2" height="24.65" shape-rendering="crispEdges"/><rect fill="#003054" x="414.8" y="99.1" width="12.2" height="24.65" shape-rendering="crispEdges"/><rect fill="#003054" x="427" y="99.1" width="12.2" height="24.65" shape-rendering="crispEdges"/><rect fill="#003054" x="439.2" y="99.1" width="12.2" height="24.65" shape-rendering="crispEdges"/><rect fill="#003054" x="451.4" y="99.1" width="12.2" height="24.65" shape-rendering="crispEdges"/><rect fill="#003054" x="463.6" y="99.1" width="12.2" height="24.65" shape-rendering="crispEdges"/><rect fill="#003054" x="475.8" y="99.1" width="12.2" height="24.65" shape-rendering="crispEdges"/><rect fill="#003054" x="488" y="99.1" width="12.2" height="24.65" shape-rendering="crispEdges"/><rect fill="#003054" x="500.2" y="99.1" width="12.2" height="24.65" shape-rendering="crispEdges"/><rect fill="#003054" x="512.4" y="99.1" width="12.2" height="24.65" shape-rendering="crispEdges"/><rect fill="#003054" x="524.6" y="99.1" width="12.2" height="24.65" shape-rendering="crispEdges"/><rect fill="#003054" x="536.8" y="99.1" width="12.2" height="24.65" shape-rendering="crispEdges"/><rect fill="#003054" x="549" y="99.1" width="12.2" height="24.65" shape-rendering="crispEdges"/><rect fill="#003054" x="561.2" y="99.1" width="12.2" height="24.65" shape-rendering="crispEdges"/><rect fill="#003054" x="573.4" y="99.1" width="12.2" height="24.65" shape-rendering="crispEdges"/><rect fill="#003054" x="585.6" y="99.1" width="12.2" height="24.65" shape-rendering="crispEdges"/><rect fill="#003054" x="597.8" y="99.1" width="12.2" height="24.65" shape-rendering="crispEdges"/><rect fill="#003054" x="610" y="99.1" width="12.2" height="24.65" shape-rendering="crispEdges"/><rect fill="#003054" x="622.2" y="99.1" width="12.2" height="24.65" shape-rendering="crispEdges"/><rect fill="#003054" x="634.4" y="99.1" width="12.2" height="24.65" shape-rendering="crispEdges"/><rect fill="#003054" x="646.6" y="99.1" width="12.2" height="24.65" shape-rendering="crispEdges"/><rect fill="#003054" x="658.8" y="99.1" width="12.2" height="24.65" shape-rendering="crispEdges"/><rect fill="#003054" x="671" y="99.1" width="12.2" height="24.65" shape-rendering="crispEdges"/><rect fill="#003054" x="683.2" y="99.1" width="12.2" height="24.65" shape-rendering="crispEdges"/><rect fill="#003054" x="695.4" y="99.1" width="12.2" height="24.65" shape-rendering="crispEdges"/><rect fill="#003054" x="707.6" y="99.1" width="12.2" height="24.65" shape-rendering="crispEdges"/><rect fill="#003054" x="719.8" y="99.1" width="12.2" height="24.65" shape-rendering="crispEdges"/><rect fill="#003054" x="732" y="99.1" width="12.2" height="24.65" shape-rendering="crispEdges"/><rect fill="#003054" x="744.2" y="99.1" width="12.2" height="24.65" shape-rendering="crispEdges"/><rect fill="#003054" x="756.4" y="99.1" width="12.2" height="24.65" shape-rendering="crispEdges"/><rect fill="#003054" x="768.6" y="99.1" width="12.2" height="24.65" shape-rendering="crispEdges"/><rect fill="#000000" x="780.8" y="99.1" width="12.2" height="24.65" shape-rendering="crispEdges"/><rect fill="#000000" x="793" y="99.1" width="12.2" height="24.65" shape-rendering="crispEdges"/><rect fill="#000000" x="805.2" y="99.1" width="12.2" height="24.65" shape-rendering="crispEdges"/><rect fill="#000000" x="817.4" y="99.1" width="12.2" height="24.65" shape-rendering="crispEdges"/><rect fill="#000000" x="829.6" y="99.1" width="12.2" height="24.65" shape-rendering="crispEdges"/><rect fill="#000000" x="841.8" y="99.1" width="12.2" height="24.65" shape-rendering="crispEdges"/><rect fill="#000000" x="854" y="99.1" width="12.2" height="24.65" shape-rendering="crispEdges"/><rect fill="#000000" x="866.2" y="99.1" width="12.2" height="24.65" shape-rendering="crispEdges"/><rect fill="#000000" x="878.4" y="99.1" width="12.2" height="24.65" shape-rendering="crispEdges"/><rect fill="#000000" x="890.6" y="99.1" width="12.2" height="24.65" shape-rendering="crispEdges"/><rect fill="#000000" x="902.8" y="99.1" width="12.2" height="24.65" shape-rendering="crispEdges"/><rect fill="#000000" x="915" y="99.1" width="12.2" height="24.65" shape-rendering="crispEdges"/><rect fill="#000000" x="927.2" y="99.1" width="12.2" height="24.65" shape-rendering="crispEdges"/><rect fill="#000000" x="939.4" y="99.1" width="12.2" height="24.65" shape-rendering="crispEdges"/><rect fill="#000000" x="951.6" y="99.1" width="12.2" height="24.65" shape-rendering="crispEdges"/><rect fill="#fea62b" x="963.8" y="99.1" width="12.2" height="24.65" shape-rendering="crispEdges"/><rect fill="#1e1e1e" x="976" y="99.1" width="24.4" height="24.65" shape-rendering="crispEdges"/><rect fill="#1e1e1e" x="1000.4" y="99.1" width="85.4" height="24.65" shape-rendering="crispEdges"/><rect fill="#1e1e1e" x="1085.8" y="99.1" width="85.4" height="24.65" shape-rendering="crispEdges"/><rect fill="#1e1e1e" x="1171.2" y="99.1" width="414.8" height="24.65" shape-rendering="crispEdges"/><rect fill="#1e1e1e" x="1586" y="99.1" width="24.4" height="24.65" shape-rendering="crispEdges"/><rect fill="#1e1e1e" x="0" y="123.5" width="963.8" height="24.65" shape-rendering="crispEdges"/><rect fill="#fea62b" x="963.8" y="123.5" width="12.2" height="24.65" shape-rendering="crispEdges"/><rect fill="#1e1e1e" x="976" y="123.5" width="24.4" height="24.65" shape-rendering="crispEdges"/><rect fill="#1e1e1e" x="1000.4" y="123.5" width="109.8" height="24.65" shape-rendering="crispEdges"/><rect fill="#1e1e1e" x="1110.2" y="123.5" width="109.8" height="24.65" shape-rendering="crispEdges"/><rect fill="#1e1e1e" x="1220" y="123.5" width="366" height="24.65" shape-rendering="crispEdges"/><rect fill="#1e1e1e" x="1586" y="123.5" width="24.4" height="24.65" shape-rendering="crispEdges"/><rect fill="#1e1e1e" x="0" y="147.9" width="963.8" height="24.65" shape-rendering="crispEdges"/><rect fill="#fea62b" x="963.8" y="147.9" width="12.2" height="24.65" shape-rendering="crispEdges"/><rect fill="#1e1e1e" x="976" y="147.9" width="24.4" height="24.65" shape-rendering="crispEdges"/><rect fill="#1e1e1e" x="1000.4" y="147.9" width="109.8" height="24.65" shape-rendering="crispEdges"/><rect fill="#1e1e1e" x="1110.2" y="147.9" width="73.2" height="24.65" shape-rendering="crispEdges"/><rect fill="#1e1e1e" x="1183.4" y="147.9" width="402.6" height="24.65" shape-rendering="crispEdges"/><rect fill="#1e1e1e" x="1586" y="147.9" width="24.4" height="24.65" shape-rendering="crispEdges"/><rect fill="#1e1e1e" x="0" y="172.3" width="963.8" height="24.65" shape-rendering="crispEdges"/><rect fill="#fea62b" x="963.8" y="172.3" width="12.2" height="24.65" shape-rendering="crispEdges"/><rect fill="#1e1e1e" x="976" y="172.3" width="24.4" height="24.65" shape-rendering="crispEdges"/><rect fill="#1e1e1e" x="1000.4" y="172.3" width="73.2" height="24.65" shape-rendering="crispEdges"/><rect fill="#1e1e1e" x="1073.6" y="172.3" width="451.4" height="24.65" shape-rendering="crispEdges"/><rect fill="#1e1e1e" x="1525" y="172.3" width="61" height="24.65" shape-rendering="crispEdges"/><rect fill="#1e1e1e" x="1586" y="172.3" width="24.4" height="24.65" shape-rendering="crispEdges"/><rect fill="#1e1e1e" x="0" y="196.7" width="963.8" height="24.65" shape-rendering="crispEdges"/><rect fill="#fea62b" x="963.8" y="196.7" width="12.2" height="24.65" shape-rendering="crispEdges"/><rect fill="#1e1e1e" x="976" y="196.7" width="24.4" height="24.65" shape-rendering="crispEdges"/><rect fill="#1e1e1e" x="1000.4" y="196.7" width="0" height="24.65" shape-rendering="crispEdges"/><rect fill="#1e1e1e" x="1000.4" y="196.7" width="585.6" height="24.65" shape-rendering="crispEdges"/><rect fill="#1e1e1e" x="1586" y="196.7" width="24.4" height="24.65" shape-rendering="crispEdges"/><rect fill="#1e1e1e" x="0" y="221.1" width="963.8" height="24.65" shape-rendering="crispEdges"/><rect fill="#fea62b" x="963.8" y="221.1" width="12.2" height="24.65" shape-rendering="crispEdges"/><rect fill="#1e1e1e" x="976" y="221.1" width="24.4" height="24.65" shape-rendering="crispEdges"/><rect fill="#1e1e1e" x="1000.4" y="221.1" width="146.4" height="24.65" shape-rendering="crispEdges"/><rect fill="#1e1e1e" x="1146.8" y="221.1" width="439.2" height="24.65" shape-rendering="crispEdges"/><rect fill="#1e1e1e" x="1586" y="221.1" width="24.4" height="24.65" shape-rendering="crispEdges"/><rect fill="#1e1e1e" x="0" y="245.5" width="963.8" height="24.65" shape-rendering="crispEdges"/><rect fill="#fea62b" x="963.8" y="245.5" width="12.2" height="24.65" shape-rendering="crispEdges"/><rect fill="#1e1e1e" x="976" y="245.5" width="24.4" height="24.65" shape-rendering="crispEdges"/><rect fill="#1e1e1e" x="1000.4" y="245.5" width="536.8" height="24.65" shape-rendering="crispEdges"/><rect fill="#1e1e1e" x="1537.2" y="245.5" width="48.8" height="24.65" shape-rendering="crispEdges"/><rect fill="#1e1e1e" x="1586" y="245.5" width="24.4" height="24.65" shape-rendering="crispEdges"/><rect fill="#1e1e1e" x="0" y="269.9" width="963.8" height="24.65" shape-rendering="crispEdges"/><rect fill="#fea62b" x="963.8" y="269.9" width="12.2" height="24.65" shape-rendering="crispEdges"/><rect fill="#1e1e1e" x="976" y="269.9" width="634.4" height="24.65" shape-rendering="crispEdges"/><rect fill="#1e1e1e" x="0" y="294.3" width="963.8" height="24.65" shape-rendering="crispEdges"/><rect fill="#1e1e1e" x="963.8" y="294.3" width="646.6" height="24.65" shape-rendering="crispEdges"/><rect fill="#1e1e1e" x="0" y="318.7" width="963.8" height="24.65" shape-rendering="crispEdges"/><rect fill="#1e1e1e" x="963.8" y="318.7" width="646.6" height="24.65" shape-rendering="crispEdges"/><rect fill="#1e1e1e" x="0" y="343.1" width="963.8" height="24.65" shape-rendering="crispEdges"/><rect fill="#1e1e1e" x="963.8" y="343.1" width="646.6" height="24.65" shape-rendering="crispEdges"/><rect fill="#1e1e1e" x="0" y="367.5" width="963.8" height="24.65" shape-rendering="crispEdges"/><rect fill="#1e1e1e" x="963.8" y="367.5" width="646.6" height="24.65" shape-rendering="crispEdges"/><rect fill="#1e1e1e" x="0" y="391.9" width="963.8" height="24.65" shape-rendering="crispEdges"/><rect fill="#1e1e1e" x="963.8" y="391.9" width="646.6" height="24.65" shape-rendering="crispEdges"/><rect fill="#1e1e1e" x="0" y="416.3" width="963.8" height="24.65" shape-rendering="crispEdges"/><rect fill="#1e1e1e" x="963.8" y="416.3" width="646.6" height="24.65" shape-rendering="crispEdges"/><rect fill="#1e1e1e" x="0" y="440.7" width="963.8" height="24.65" shape-rendering="crispEdges"/><rect fill="#1e1e1e" x="963.8" y="440.7" width="646.6" height="24.65" shape-rendering="crispEdges"/><rect fill="#1e1e1e" x="0" y="465.1" width="963.8" height="24.65" shape-rendering="crispEdges"/><rect fill="#1e1e1e" x="963.8" y="465.1" width="646.6" height="24.65" shape-rendering="crispEdges"/><rect fill="#1e1e1e" x="0" y="489.5" width="963.8" height="24.65" shape-rendering="crispEdges"/><rect fill="#1e1e1e" x="963.8" y="489.5" width="646.6" height="24.65" shape-rendering="crispEdges"/><rect fill="#1e1e1e" x="0" y="513.9" width="963.8" height="24.65" shape-rendering="crispEdges"/><rect fill="#1e1e1e" x="963.8" y="513.9" width="646.6" height="24.65" shape-rendering="crispEdges"/><rect fill="#1e1e1e" x="0" y="538.3" width="963.8" height="24.65" shape-rendering="crispEdges"/><rect fill="#1e1e1e" x="963.8" y="538.3" width="646.6" height="24.65" shape-rendering="crispEdges"/><rect fill="#1e1e1e" x="0" y="562.7" width="963.8" height="24.65" shape-rendering="crispEdges"/><rect fill="#1e1e1e" x="963.8" y="562.7" width="646.6" height="24.65" shape-rendering="crispEdges"/><rect fill="#1e1e1e" x="0" y="587.1" width="963.8" height="24.65" shape-rendering="crispEdges"/><rect fill="#1e1e1e" x="963.8" y="587.1" width="646.6" height="24.65" shape-rendering="crispEdges"/><rect fill="#1e1e1e" x="0" y="611.5" width="963.8" height="24.65" shape-rendering="crispEdges"/><rect fill="#1e1e1e" x="963.8" y="611.5" width="646.6" height="24.65" shape-rendering="crispEdges"/><rect fill="#1e1e1e" x="0" y="635.9" width="963.8" height="24.65" shape-rendering="crispEdges"/><rect fill="#1e1e1e" x="963.8" y="635.9" width="646.6" height="24.65" shape-rendering="crispEdges"/><rect fill="#1e1e1e" x="0" y="660.3" width="963.8" height="24.65" shape-rendering="crispEdges"/><rect fill="#1e1e1e" x="963.8" y="660.3" width="646.6" height="24.65" shape-rendering="crispEdges"/><rect fill="#1e1e1e" x="0" y="684.7" width="963.8" height="24.65" shape-rendering="crispEdges"/><rect fill="#1e1e1e" x="963.8" y="684.7" width="646.6" height="24.65" shape-rendering="crispEdges"/><rect fill="#1e1e1e" x="0" y="709.1" width="963.8" height="24.65" shape-rendering="crispEdges"/><rect fill="#1e1e1e" x="963.8" y="709.1" width="646.6" height="24.65" shape-rendering="crispEdges"/><rect fill="#1e1e1e" x="0" y="733.5" width="963.8" height="24.65" shape-rendering="crispEdges"/><rect fill="#1e1e1e" x="963.8" y="733.5" width="646.6" height="24.65" shape-rendering="crispEdges"/><rect fill="#1e1e1e" x="0" y="757.9" width="963.8" height="24.65" shape-rendering="crispEdges"/><rect fill="#1e1e1e" x="963.8" y="757.9" width="646.6" height="24.65" shape-rendering="crispEdges"/><rect fill="#1e1e1e" x="0" y="782.3" width="963.8" height="24.65" shape-rendering="crispEdges"/><rect fill="#1e1e1e" x="963.8" y="782.3" width="646.6" height="24.65" shape-rendering="crispEdges"/><rect fill="#1e1e1e" x="0" y="806.7" width="963.8" height="24.65" shape-rendering="crispEdges"/><rect fill="#1e1e1e" x="963.8" y="806.7" width="646.6" height="24.65" shape-rendering="crispEdges"/><rect fill="#1e1e1e" x="0" y="831.1" width="963.8" height="24.65" shape-rendering="crispEdges"/><rect fill="#1e1e1e" x="963.8" y="831.1" width="646.6" height="24.65" shape-rendering="crispEdges"/><rect fill="#1e1e1e" x="0" y="855.5" width="963.8" height="24.65" shape-rendering="crispEdges"/><rect fill="#1e1e1e" x="963.8" y="855.5" width="646.6" height="24.65" shape-rendering="crispEdges"/><rect fill="#1e1e1e" x="0" y="879.9" width="963.8" height="24.65" shape-rendering="crispEdges"/><rect fill="#1e1e1e" x="963.8" y="879.9" width="646.6" height="24.65" shape-rendering="crispEdges"/><rect fill="#1e1e1e" x="0" y="904.3" width="963.8" height="24.65" shape-rendering="crispEdges"/><rect fill="#1e1e1e" x="963.8" y="904.3" width="646.6" height="24.65" shape-rendering="crispEdges"/><rect fill="#1e1e1e" x="0" y="928.7" width="963.8" height="24.65" shape-rendering="crispEdges"/><rect fill="#1e1e1e" x="963.8" y="928.7" width="646.6" height="24.65" shape-rendering="crispEdges"/><rect fill="#242f38" x="0" y="953.1" width="36.6" height="24.65" shape-rendering="crispEdges"/><rect fill="#242f38" x="36.6" y="953.1" width="97.6" height="24.65" shape-rendering="crispEdges"/><rect fill="#242f38" x="134.2" y="953.1" width="36.6" height="24.65" shape-rendering="crispEdges"/><rect fill="#242f38" x="170.8" y="953.1" width="73.2" height="24.65" shape-rendering="crispEdges"/><rect fill="#242f38" x="244" y="953.1" width="36.6" height="24.65" shape-rendering="crispEdges"/><rect fill="#242f38" x="280.6" y="953.1" width="61" height="24.65" shape-rendering="crispEdges"/><rect fill="#242f38" x="341.6" y="953.1" width="36.6" height="24.65" shape-rendering="crispEdges"/><rect fill="#242f38" x="378.2" y="953.1" width="134.2" height="24.65" shape-rendering="crispEdges"/><rect fill="#242f38" x="512.4" y="953.1" width="36.6" height="24.65" shape-rendering="crispEdges"/><rect fill="#242f38" x="549" y="953.1" width="73.2" height="24.65" shape-rendering="crispEdges"/><rect fill="#242f38" x="622.2" y="953.1" width="36.6" height="24.65" shape-rendering="crispEdges"/><rect fill="#242f38" x="658.8" y="953.1" width="97.6" height="24.65" shape-rendering="crispEdges"/><rect fill="#242f38" x="756.4" y="953.1" width="36.6" height="24.65" shape-rendering="crispEdges"/><rect fill="#242f38" x="793" y="953.1" width="85.4" height="24.65" shape-rendering="crispEdges"/><rect fill="#242f38" x="878.4" y="953.1" width="36.6" height="24.65" shape-rendering="crispEdges"/><rect fill="#242f38" x="915" y="953.1" width="73.2" height="24.65" shape-rendering="crispEdges"/><rect fill="#242f38" x="988.2" y="953.1" width="36.6" height="24.65" shape-rendering="crispEdges"/><rect fill="#242f38" x="1024.8" y="953.1" width="134.2" height="24.65" shape-rendering="crispEdges"/><rect fill="#242f38" x="1159" y="953.1" width="36.6" height="24.65" shape-rendering="crispEdges"/><rect fill="#242f38" x="1195.6" y="953.1" width="122" height="24.65" shape-rendering="crispEdges"/><rect fill="#242f38" x="1317.6" y="953.1" width="36.6" height="24.65" shape-rendering="crispEdges"/><rect fill="#242f38" x="1354.2" y="953.1" width="61" height="24.65" shape-rendering="crispEdges"/><rect fill="#242f38" x="1415.2" y="953.1" width="36.6" height="24.65" shape-rendering="crispEdges"/><rect fill="#242f38" x="1451.8" y="953.1" width="12.2" height="24.65" shape-rendering="crispEdges"/><rect fill="#242f38" x="1464" y="953.1" width="12.2" height="24.65" shape-rendering="crispEdges"/><rect fill="#242f38" x="1476.2" y="953.1" width="24.4" height="24.65" shape-rendering="crispEdges"/><rect fill="#242f38" x="1500.6" y="953.1" width="12.2" height="24.65" shape-rendering="crispEdges"/><rect fill="#242f38" x="1512.8" y="953.1" width="85.4" height="24.65" shape-rendering="crispEdges"/><rect fill="#242f38" x="1598.2" y="953.1" width="12.2" height="24.65" shape-rendering="crispEdges"/>
    <g class="terminal-3479858794-matrix">
    <text class="terminal-3479858794-r2" x="12.2" y="20" textLength="12.2" clip-path="url(#terminal-3479858794-line-0)">⭘</text><text class="terminal-3479858794-r2" x="573.4" y="20" textLength="73.2" clip-path="url(#terminal-3479858794-line-0)">Praxis</text><text class="terminal-3479858794-r3" x="646.6" y="20" textLength="36.6" clip-path="url(#terminal-3479858794-line-0)">&#160;—&#160;</text><text class="terminal-3479858794-r3" x="683.2" y="20" textLength="329.4" clip-path="url(#terminal-3479858794-line-0)">Agent-Led&#160;Business&#160;Analysis</text><text class="terminal-3479858794-r1" x="1610.4" y="20" textLength="12.2" clip-path="url(#terminal-3479858794-line-0)">
</text><text class="terminal-3479858794-r4" x="0" y="44.4" textLength="183" clip-path="url(#terminal-3479858794-line-1)">&#160;ID&#160;&#160;&#160;&#160;&#160;&#160;&#160;&#160;&#160;&#160;&#160;&#160;</text><text class="terminal-3479858794-r4" x="183" y="44.4" textLength="122" clip-path="url(#terminal-3479858794-line-1)">&#160;Priority&#160;</text><text class="terminal-3479858794-r4" x="305" y="44.4" textLength="97.6" clip-path="url(#terminal-3479858794-line-1)">&#160;Status&#160;</text><text class="terminal-3479858794-r4" x="402.6" y="44.4" textLength="122" clip-path="url(#terminal-3479858794-line-1)">&#160;Assignee&#160;</text><text class="terminal-3479858794-r4" x="524.6" y="44.4" textLength="439.2" clip-path="url(#terminal-3479858794-line-1)">&#160;Title&#160;&#160;&#160;&#160;&#160;&#160;&#160;&#160;&#160;&#160;&#160;&#160;&#160;&#160;&#160;&#160;&#160;&#160;&#160;&#160;&#160;&#160;&#160;&#160;&#160;&#160;&#160;&#160;&#160;&#160;</text><text class="terminal-3479858794-r5" x="963.8" y="44.4" textLength="12.2" clip-path="url(#terminal-3479858794-line-1)">▊</text><text class="terminal-3479858794-r1" x="1610.4" y="44.4" textLength="12.2" clip-path="url(#terminal-3479858794-line-1)">
</text><text class="terminal-3479858794-r6" x="0" y="68.8" textLength="183" clip-path="url(#terminal-3479858794-line-2)">&#160;wi-0b3502b7b8&#160;</text><text class="terminal-3479858794-r6" x="183" y="68.8" textLength="122" clip-path="url(#terminal-3479858794-line-2)">&#160;CRITICAL&#160;</text><text class="terminal-3479858794-r6" x="305" y="68.8" textLength="97.6" clip-path="url(#terminal-3479858794-line-2)">&#160;queued&#160;</text><text class="terminal-3479858794-r6" x="402.6" y="68.8" textLength="122" clip-path="url(#terminal-3479858794-line-2)">&#160;human&#160;&#160;&#160;&#160;</text><text class="terminal-3479858794-r6" x="524.6" y="68.8" textLength="439.2" clip-path="url(#terminal-3479858794-line-2)">&#160;Follow&#160;up&#160;on&#160;launch&#160;deadline&#160;(Alice</text><text class="terminal-3479858794-r5" x="963.8" y="68.8" textLength="12.2" clip-path="url(#terminal-3479858794-line-2)">▊</text><text class="terminal-3479858794-r4" x="1000.4" y="68.8" textLength="36.6" clip-path="url(#terminal-3479858794-line-2)">ID:</text><text class="terminal-3479858794-r2" x="1037" y="68.8" textLength="170.8" clip-path="url(#terminal-3479858794-line-2)">&#160;wi-0b3502b7b8</text><text class="terminal-3479858794-r1" x="1610.4" y="68.8" textLength="12.2" clip-path="url(#terminal-3479858794-line-2)">
</text><text class="terminal-3479858794-r2" x="0" y="93.2" textLength="183" clip-path="url(#terminal-3479858794-line-3)">&#160;wi-58d0c20e0c&#160;</text><text class="terminal-3479858794-r2" x="183" y="93.2" textLength="122" clip-path="url(#terminal-3479858794-line-3)">&#160;HIGH&#160;&#160;&#160;&#160;&#160;</text><text class="terminal-3479858794-r2" x="305" y="93.2" textLength="97.6" clip-path="url(#terminal-3479858794-line-3)">&#160;queued&#160;</text><text class="terminal-3479858794-r2" x="402.6" y="93.2" textLength="122" clip-path="url(#terminal-3479858794-line-3)">&#160;human&#160;&#160;&#160;&#160;</text><text class="terminal-3479858794-r2" x="524.6" y="93.2" textLength="439.2" clip-path="url(#terminal-3479858794-line-3)">&#160;Interview&#160;Priya:&#160;doc&#160;requirements&#160;b</text><text class="terminal-3479858794-r5" x="963.8" y="93.2" textLength="12.2" clip-path="url(#terminal-3479858794-line-3)">▊</text><text class="terminal-3479858794-r4" x="1000.4" y="93.2" textLength="61" clip-path="url(#terminal-3479858794-line-3)">Type:</text><text class="terminal-3479858794-r2" x="1061.4" y="93.2" textLength="158.6" clip-path="url(#terminal-3479858794-line-3)">&#160;send_message</text><text class="terminal-3479858794-r1" x="1610.4" y="93.2" textLength="12.2" clip-path="url(#terminal-3479858794-line-3)">
</text><text class="terminal-3479858794-r8" x="780.8" y="117.6" textLength="12.2" clip-path="url(#terminal-3479858794-line-4)">▍</text><text class="terminal-3479858794-r5" x="963.8" y="117.6" textLength="12.2" clip-path="url(#terminal-3479858794-line-4)">▊</text><text class="terminal-3479858794-r4" x="1000.4" y="117.6" textLength="85.4" clip-path="url(#terminal-3479858794-line-4)">Status:</text><text class="terminal-3479858794-r2" x="1085.8" y="117.6" textLength="85.4" clip-path="url(#terminal-3479858794-line-4)">&#160;queued</text><text class="terminal-3479858794-r1" x="1610.4" y="117.6" textLength="12.2" clip-path="url(#terminal-3479858794-line-4)">
</text><text class="terminal-3479858794-r5" x="963.8" y="142" textLength="12.2" clip-path="url(#terminal-3479858794-line-5)">▊</text><text class="terminal-3479858794-r4" x="1000.4" y="142" textLength="109.8" clip-path="url(#terminal-3479858794-line-5)">Priority:</text><text class="terminal-3479858794-r2" x="1110.2" y="142" textLength="109.8" clip-path="url(#terminal-3479858794-line-5)">&#160;critical</text><text class="terminal-3479858794-r1" x="1610.4" y="142" textLength="12.2" clip-path="url(#terminal-3479858794-line-5)">
</text><text class="terminal-3479858794-r5" x="963.8" y="166.4" textLength="12.2" clip-path="url(#terminal-3479858794-line-6)">▊</text><text class="terminal-3479858794-r4" x="1000.4" y="166.4" textLength="109.8" clip-path="url(#terminal-3479858794-line-6)">Assignee:</text><text class="terminal-3479858794-r2" x="1110.2" y="166.4" textLength="73.2" clip-path="url(#terminal-3479858794-line-6)">&#160;human</text><text class="terminal-3479858794-r1" x="1610.4" y="166.4" textLength="12.2" clip-path="url(#terminal-3479858794-line-6)">
</text><text class="terminal-3479858794-r5" x="963.8" y="190.8" textLength="12.2" clip-path="url(#terminal-3479858794-line-7)">▊</text><text class="terminal-3479858794-r4" x="1000.4" y="190.8" textLength="73.2" clip-path="url(#terminal-3479858794-line-7)">Title:</text><text class="terminal-3479858794-r2" x="1073.6" y="190.8" textLength="451.4" clip-path="url(#terminal-3479858794-line-7)">&#160;Follow&#160;up&#160;on&#160;launch&#160;deadline&#160;(Alice)</text><text class="terminal-3479858794-r1" x="1610.4" y="190.8" textLength="12.2" clip-path="url(#terminal-3479858794-line-7)">
</text><text class="terminal-3479858794-r5" x="963.8" y="215.2" textLength="12.2" clip-path="url(#terminal-3479858794-line-8)">▊</text><text class="terminal-3479858794-r1" x="1610.4" y="215.2" textLength="12.2" clip-path="url(#terminal-3479858794-line-8)">
</text><text class="terminal-3479858794-r5" x="963.8" y="239.6" textLength="12.2" clip-path="url(#terminal-3479858794-line-9)">▊</text><text class="terminal-3479858794-r4" x="1000.4" y="239.6" textLength="146.4" clip-path="url(#terminal-3479858794-line-9)">Description:</text><text class="terminal-3479858794-r1" x="1610.4" y="239.6" textLength="12.2" clip-path="url(#terminal-3479858794-line-9)">
</text><text class="terminal-3479858794-r5" x="963.8" y="264" textLength="12.2" clip-path="url(#terminal-3479858794-line-10)">▊</text><text class="terminal-3479858794-r2" x="1000.4" y="264" textLength="536.8" clip-path="url(#terminal-3479858794-line-10)">Confirm&#160;the&#160;executive-committed&#160;launch&#160;date.</text><text class="terminal-3479858794-r1" x="1610.4" y="264" textLength="12.2" clip-path="url(#terminal-3479858794-line-10)">
</text><text class="terminal-3479858794-r5" x="963.8" y="288.4" textLength="12.2" clip-path="url(#terminal-3479858794-line-11)">▊</text><text class="terminal-3479858794-r1" x="1610.4" y="288.4" textLength="12.2" clip-path="url(#terminal-3479858794-line-11)">
</text><text class="terminal-3479858794-r1" x="1610.4" y="312.8" textLength="12.2" clip-path="url(#terminal-3479858794-line-12)">
</text><text class="terminal-3479858794-r1" x="1610.4" y="337.2" textLength="12.2" clip-path="url(#terminal-3479858794-line-13)">
</text><text class="terminal-3479858794-r1" x="1610.4" y="361.6" textLength="12.2" clip-path="url(#terminal-3479858794-line-14)">
</text><text class="terminal-3479858794-r1" x="1610.4" y="386" textLength="12.2" clip-path="url(#terminal-3479858794-line-15)">
</text><text class="terminal-3479858794-r1" x="1610.4" y="410.4" textLength="12.2" clip-path="url(#terminal-3479858794-line-16)">
</text><text class="terminal-3479858794-r1" x="1610.4" y="434.8" textLength="12.2" clip-path="url(#terminal-3479858794-line-17)">
</text><text class="terminal-3479858794-r1" x="1610.4" y="459.2" textLength="12.2" clip-path="url(#terminal-3479858794-line-18)">
</text><text class="terminal-3479858794-r1" x="1610.4" y="483.6" textLength="12.2" clip-path="url(#terminal-3479858794-line-19)">
</text><text class="terminal-3479858794-r1" x="1610.4" y="508" textLength="12.2" clip-path="url(#terminal-3479858794-line-20)">
</text><text class="terminal-3479858794-r1" x="1610.4" y="532.4" textLength="12.2" clip-path="url(#terminal-3479858794-line-21)">
</text><text class="terminal-3479858794-r1" x="1610.4" y="556.8" textLength="12.2" clip-path="url(#terminal-3479858794-line-22)">
</text><text class="terminal-3479858794-r1" x="1610.4" y="581.2" textLength="12.2" clip-path="url(#terminal-3479858794-line-23)">
</text><text class="terminal-3479858794-r1" x="1610.4" y="605.6" textLength="12.2" clip-path="url(#terminal-3479858794-line-24)">
</text><text class="terminal-3479858794-r1" x="1610.4" y="630" textLength="12.2" clip-path="url(#terminal-3479858794-line-25)">
</text><text class="terminal-3479858794-r1" x="1610.4" y="654.4" textLength="12.2" clip-path="url(#terminal-3479858794-line-26)">
</text><text class="terminal-3479858794-r1" x="1610.4" y="678.8" textLength="12.2" clip-path="url(#terminal-3479858794-line-27)">
</text><text class="terminal-3479858794-r1" x="1610.4" y="703.2" textLength="12.2" clip-path="url(#terminal-3479858794-line-28)">
</text><text class="terminal-3479858794-r1" x="1610.4" y="727.6" textLength="12.2" clip-path="url(#terminal-3479858794-line-29)">
</text><text class="terminal-3479858794-r1" x="1610.4" y="752" textLength="12.2" clip-path="url(#terminal-3479858794-line-30)">
</text><text class="terminal-3479858794-r1" x="1610.4" y="776.4" textLength="12.2" clip-path="url(#terminal-3479858794-line-31)">
</text><text class="terminal-3479858794-r1" x="1610.4" y="800.8" textLength="12.2" clip-path="url(#terminal-3479858794-line-32)">
</text><text class="terminal-3479858794-r1" x="1610.4" y="825.2" textLength="12.2" clip-path="url(#terminal-3479858794-line-33)">
</text><text class="terminal-3479858794-r1" x="1610.4" y="849.6" textLength="12.2" clip-path="url(#terminal-3479858794-line-34)">
</text><text class="terminal-3479858794-r1" x="1610.4" y="874" textLength="12.2" clip-path="url(#terminal-3479858794-line-35)">
</text><text class="terminal-3479858794-r1" x="1610.4" y="898.4" textLength="12.2" clip-path="url(#terminal-3479858794-line-36)">
</text><text class="terminal-3479858794-r1" x="1610.4" y="922.8" textLength="12.2" clip-path="url(#terminal-3479858794-line-37)">
</text><text class="terminal-3479858794-r1" x="1610.4" y="947.2" textLength="12.2" clip-path="url(#terminal-3479858794-line-38)">
</text><text class="terminal-3479858794-r9" x="0" y="971.6" textLength="36.6" clip-path="url(#terminal-3479858794-line-39)">&#160;r&#160;</text><text class="terminal-3479858794-r2" x="36.6" y="971.6" textLength="97.6" clip-path="url(#terminal-3479858794-line-39)">Refresh&#160;</text><text class="terminal-3479858794-r9" x="134.2" y="971.6" textLength="36.6" clip-path="url(#terminal-3479858794-line-39)">&#160;1&#160;</text><text class="terminal-3479858794-r2" x="170.8" y="971.6" textLength="73.2" clip-path="url(#terminal-3479858794-line-39)">Queue&#160;</text><text class="terminal-3479858794-r9" x="244" y="971.6" textLength="36.6" clip-path="url(#terminal-3479858794-line-39)">&#160;2&#160;</text><text class="terminal-3479858794-r2" x="280.6" y="971.6" textLength="61" clip-path="url(#terminal-3479858794-line-39)">Chat&#160;</text><text class="terminal-3479858794-r9" x="341.6" y="971.6" textLength="36.6" clip-path="url(#terminal-3479858794-line-39)">&#160;3&#160;</text><text class="terminal-3479858794-r2" x="378.2" y="971.6" textLength="134.2" clip-path="url(#terminal-3479858794-line-39)">Engagement&#160;</text><text class="terminal-3479858794-r9" x="512.4" y="971.6" textLength="36.6" clip-path="url(#terminal-3479858794-line-39)">&#160;4&#160;</text><text class="terminal-3479858794-r2" x="549" y="971.6" textLength="73.2" clip-path="url(#terminal-3479858794-line-39)">Audit&#160;</text><text class="terminal-3479858794-r9" x="622.2" y="971.6" textLength="36.6" clip-path="url(#terminal-3479858794-line-39)">&#160;5&#160;</text><text class="terminal-3479858794-r2" x="658.8" y="971.6" textLength="97.6" clip-path="url(#terminal-3479858794-line-39)">Backlog&#160;</text><text class="terminal-3479858794-r9" x="756.4" y="971.6" textLength="36.6" clip-path="url(#terminal-3479858794-line-39)">&#160;6&#160;</text><text class="terminal-3479858794-r2" x="793" y="971.6" textLength="85.4" clip-path="url(#terminal-3479858794-line-39)">Config&#160;</text><text class="terminal-3479858794-r9" x="878.4" y="971.6" textLength="36.6" clip-path="url(#terminal-3479858794-line-39)">&#160;7&#160;</text><text class="terminal-3479858794-r2" x="915" y="971.6" textLength="73.2" clip-path="url(#terminal-3479858794-line-39)">Setup&#160;</text><text class="terminal-3479858794-r9" x="988.2" y="971.6" textLength="36.6" clip-path="url(#terminal-3479858794-line-39)">&#160;8&#160;</text><text class="terminal-3479858794-r2" x="1024.8" y="971.6" textLength="134.2" clip-path="url(#terminal-3479858794-line-39)">Priorities&#160;</text><text class="terminal-3479858794-r9" x="1159" y="971.6" textLength="36.6" clip-path="url(#terminal-3479858794-line-39)">&#160;9&#160;</text><text class="terminal-3479858794-r2" x="1195.6" y="971.6" textLength="122" clip-path="url(#terminal-3479858794-line-39)">Artifacts&#160;</text><text class="terminal-3479858794-r9" x="1317.6" y="971.6" textLength="36.6" clip-path="url(#terminal-3479858794-line-39)">&#160;q&#160;</text><text class="terminal-3479858794-r2" x="1354.2" y="971.6" textLength="61" clip-path="url(#terminal-3479858794-line-39)">Quit&#160;</text><text class="terminal-3479858794-r9" x="1415.2" y="971.6" textLength="36.6" clip-path="url(#terminal-3479858794-line-39)">&#160;?&#160;</text><text class="terminal-3479858794-r2" x="1451.8" y="971.6" textLength="12.2" clip-path="url(#terminal-3479858794-line-39)">H</text><text class="terminal-3479858794-r10" x="1464" y="971.6" textLength="12.2" clip-path="url(#terminal-3479858794-line-39)">▏</text><text class="terminal-3479858794-r9" x="1476.2" y="971.6" textLength="24.4" clip-path="url(#terminal-3479858794-line-39)">^p</text><text class="terminal-3479858794-r2" x="1512.8" y="971.6" textLength="85.4" clip-path="url(#terminal-3479858794-line-39)">palette</text>
    </g>
    </g>
</svg>
