<svg class="rich-terminal" viewBox="0 0 1629 1026.0" xmlns="http://www.w3.org/2000/svg">
    <!-- Generated with Rich https://www.textualize.io -->
    <style>

    @font-face {
        font-family: "Fira Code";
        src: local("FiraCode-Regular"),
                url("https://cdnjs.cloudflare.com/ajax/libs/firacode/6.2.0/woff2/FiraCode-Regular.woff2") format("woff2"),
                url("https://cdnjs.cloudflare.com/ajax/libs/firacode/6.2.0/woff/FiraCode-Regular.woff") format("woff");
        font-style: normal;
        font-weight: 400;
    }
    @font-face {
        font-family: "Fira Code";
        src: local("FiraCode-Bold"),
                url("https://cdnjs.cloudflare.com/ajax/libs/firacode/6.2.0/woff2/FiraCode-Bold.woff2") format("woff2"),
                url("https://cdnjs.cloudflare.com/ajax/libs/firacode/6.2.0/woff/FiraCode-Bold.woff") format("woff");
        font-style: bold;
        font-weight: 700;
    }

    .terminal-323734363-matrix {
        font-family: Fira Code, monospace;
        font-size: 20px;
        line-height: 24.4px;
        font-variant-east-asian: full-width;
    }

    .terminal-323734363-title {
        font-size: 18px;
        font-weight: bold;
        font-family: arial;
    }

    .terminal-323734363-r1 { fill: #c5c8c6 }
.terminal-323734363-r2 { fill: #e0e0e0 }
.terminal-323734363-r3 { fill: #a0a3a6 }
.terminal-323734363-r4 { fill: #ddedf9;font-weight: bold }
.terminal-323734363-r5 { fill: #7f7f7f }
.terminal-323734363-r6 { fill: #585858 }
.terminal-323734363-r7 { fill: #0178d4 }
.terminal-323734363-r8 { fill: #e0e0e0;font-weight: bold }
.terminal-323734363-r9 { fill: #ffa62b;font-weight: bold }
.terminal-323734363-r10 { fill: #495259 }
    </style>

    <defs>
    <clipPath id="terminal-323734363-clip-terminal">
      <rect x="0" y="0" width="1609.3999999999999" height="975.0" />
    </clipPath>
    <clipPath id="terminal-323734363-line-0">
    <rect x="0" y="1.5" width="1610.4" height="24.65"/>
            </clipPath>
<clipPath id="terminal-323734363-line-1">
    <rect x="0" y="25.9" width="1610.4" height="24.65"/>
            </clipPath>
<clipPath id="terminal-323734363-line-2">
    <rect x="0" y="50.3" width="1610.4" height="24.65"/>
            </clipPath>
<clipPath id="terminal-323734363-line-3">
    <rect x="0" y="74.7" width="1610.4" height="24.65"/>
            </clipPath>
<clipPath id="terminal-323734363-line-4">
    <rect x="0" y="99.1" width="1610.4" height="24.65"/>
            </clipPath>
<clipPath id="terminal-323734363-line-5">
    <rect x="0" y="123.5" width="1610.4" height="24.65"/>
            </clipPath>
<clipPath id="terminal-323734363-line-6">
    <rect x="0" y="147.9" width="1610.4" height="24.65"/>
            </clipPath>
<clipPath id="terminal-323734363-line-7">
    <rect x="0" y="172.3" width="1610.4" height="24.65"/>
            </clipPath>
<clipPath id="terminal-323734363-line-8">
    <rect x="0" y="196.7" width="1610.4" height="24.65"/>
            </clipPath>
<clipPath id="terminal-323734363-line-9">
    <rect x="0" y="221.1" width="1610.4" height="24.65"/>
            </clipPath>
<clipPath id="terminal-323734363-line-10">
    <rect x="0" y="245.5" width="1610.4" height="24.65"/>
            </clipPath>
<clipPath id="terminal-323734363-line-11">
    <rect x="0" y="269.9" width="1610.4" height="24.65"/>
            </clipPath>
<clipPath id="terminal-323734363-line-12">
    <rect x="0" y="294.3" width="1610.4" height="24.65"/>
            </clipPath>
<clipPath id="terminal-323734363-line-13">
    <rect x="0" y="318.7" width="1610.4" height="24.65"/>
            </clipPath>
<clipPath id="terminal-323734363-line-14">
    <rect x="0" y="343.1" width="1610.4" height="24.65"/>
            </clipPath>
<clipPath id="terminal-323734363-line-15">
    <rect x="0" y="367.5" width="1610.4" height="24.65"/>
            </clipPath>
<clipPath id="terminal-323734363-line-16">
    <rect x="0" y="391.9" width="1610.4" height="24.65"/>
            </clipPath>
<clipPath id="terminal-323734363-line-17">
    <rect x="0" y="416.3" width="1610.4" height="24.65"/>
            </clipPath>
<clipPath id="terminal-323734363-line-18">
    <rect x="0" y="440.7" width="1610.4" height="24.65"/>
            </clipPath>
<clipPath id="terminal-323734363-line-19">
    <rect x="0" y="465.1" width="1610.4" height="24.65"/>
            </clipPath>
<clipPath id="terminal-323734363-line-20">
    <rect x="0" y="489.5" width="1610.4" height="24.65"/>
            </clipPath>
<clipPath id="terminal-323734363-line-21">
    <rect x="0" y="513.9" width="1610.4" height="24.65"/>
            </clipPath>
<clipPath id="terminal-323734363-line-22">
    <rect x="0" y="538.3" width="1610.4" height="24.65"/>
            </clipPath>
<clipPath id="terminal-323734363-line-23">
    <rect x="0" y="562.7" width="1610.4" height="24.65"/>
            </clipPath>
<clipPath id="terminal-323734363-line-24">
    <rect x="0" y="587.1" width="1610.4" height="24.65"/>
            </clipPath>
<clipPath id="terminal-323734363-line-25">
    <rect x="0" y="611.5" width="1610.4" height="24.65"/>
            </clipPath>
<clipPath id="terminal-323734363-line-26">
    <rect x="0" y="635.9" width="1610.4" height="24.65"/>
            </clipPath>
<clipPath id="terminal-323734363-line-27">
    <rect x="0" y="660.3" width="1610.4" height="24.65"/>
            </clipPath>
<clipPath id="terminal-323734363-line-28">
    <rect x="0" y="684.7" width="1610.4" height="24.65"/>
            </clipPath>
<clipPath id="terminal-323734363-line-29">
    <rect x="0" y="709.1" width="1610.4" height="24.65"/>
            </clipPath>
<clipPath id="terminal-323734363-line-30">
    <rect x="0" y="733.5" width="1610.4" height="24.65"/>
            </clipPath>
<clipPath id="terminal-323734363-line-31">
    <rect x="0" y="757.9" width="1610.4" height="24.65"/>
            </clipPath>
<clipPath id="terminal-323734363-line-32">
    <rect x="0" y="782.3" width="1610.4" height="24.65"/>
            </clipPath>
<clipPath id="terminal-323734363-line-33">
    <rect x="0" y="806.7" width="1610.4" height="24.65"/>
            </clipPath>
<clipPath id="terminal-323734363-line-34">
    <rect x="0" y="831.1" width="1610.4" height="24.65"/>
            </clipPath>
<clipPath id="terminal-323734363-line-35">
    <rect x="0" y="855.5" width="1610.4" height="24.65"/>
            </clipPath>
<clipPath id="terminal-323734363-line-36">
    <rect x="0" y="879.9" width="1610.4" height="24.65"/>
            </clipPath>
<clipPath id="terminal-323734363-line-37">
    <rect x="0" y="904.3" width="1610.4" height="24.65"/>
            </clipPath>
<clipPath id="terminal-323734363-line-38">
    <rect x="0" y="928.7" width="1610.4" height="24.65"/>
            </clipPath>
    </defs>

    <rect fill="#292929" stroke="rgba(255,255,255,0.35)" stroke-width="1" x="1" y="1" width="1627" height="1024" rx="8"/><text class="terminal-323734363-title" fill="#c5c8c6" text-anchor="middle" x="813" y="27">Praxis</text>
            <g transform="translate(26,22)">
            <circle cx="0" cy="0" r="7" fill="#ff5f57"/>
            <circle cx="22" cy="0" r="7" fill="#febc2e"/>
            <circle cx="44" cy="0" r="7" fill="#28c840"/>
            </g>
        
    <g transform="translate(9, 41)" clip-path="url(#terminal-323734363-clip-terminal)">
    <rect fill="#242f38" x="0" y="1.5" width="12.2" height="24.65" shape-rendering="crispEdges"/><rect fill="#242f38" x="12.2" y="1.5" width="12.2" height="24.65" shape-rendering="crispEdges"/><rect fill="#242f38" x="24.4" y="1.5" width="61" height="24.65" shape-rendering="crispEdges"/><rect fill="#242f38" x="85.4" y="1.5" width="12.2" height="24.65" shape-rendering="crispEdges"/><rect fill="#242f38" x="97.6" y="1.5" width="475.8" height="24.65" shape-rendering="crispEdges"/><rect fill="#242f38" x="573.4" y="1.5" width="73.2" height="24.65" shape-rendering="crispEdges"/><rect fill="#242f38" x="646.6" y="1.5" width="36.6" height="24.65" shape-rendering="crispEdges"/><rect fill="#242f38" x="683.2" y="1.5" width="329.4" height="24.65" shape-rendering="crispEdges"/><rect fill="#242f38" x="1012.6" y="1.5" width="475.8" height="24.65" shape-rendering="crispEdges"/><rect fill="#242f38" x="1488.4" y="1.5" width="12.2" height="24.65" shape-rendering="crispEdges"/><rect fill="#242f38" x="1500.6" y="1.5" width="0" height="24.65" shape-rendering="crispEdges"/><rect fill="#242f38" x="1500.6" y="1.5" width="97.6" height="24.65" shape-rendering="crispEdges"/><rect fill="#242f38" x="1598.2" y="1.5" width="12.2" height="24.65" shape-rendering="crispEdges"/><rect fill="#0178d4" x="0" y="25.9" width="12.2" height="24.65" shape-rendering="crispEdges"/><rect fill="#0178d4" x="12.2" y="25.9" width="146.4" height="24.65" shape-rendering="crispEdges"/><rect fill="#0178d4" x="158.6" y="25.9" width="12.2" height="24.65" shape-rendering="crispEdges"/><rect fill="#1e1e1e" x="170.8" y="25.9" width="12.2" height="24.65" shape-rendering="crispEdges"/><rect fill="#1e1e1e" x="183" y="25.9" width="109.8" height="24.65" shape-rendering="crispEdges"/><rect fill="#1e1e1e" x="292.8" y="25.9" width="12.2" height="24.65" shape-rendering="crispEdges"/><rect fill="#1e1e1e" x="305" y="25.9" width="12.2" height="24.65" shape-rendering="crispEdges"/><rect fill="#1e1e1e" x="317.2" y="25.9" width="97.6" height="24.65" shape-rendering="crispEdges"/><rect fill="#1e1e1e" x="414.8" y="25.9" width="12.2" height="24.65" shape-rendering="crispEdges"/><rect fill="#1e1e1e" x="427" y="25.9" width="12.2" height="24.65" shape-rendering="crispEdges"/><rect fill="#1e1e1e" x="439.2" y="25.9" width="61" height="24.65" shape-rendering="crispEdges"/><rect fill="#1e1e1e" x="500.2" y="25.9" width="12.2" height="24.65" shape-rendering="crispEdges"/><rect fill="#1e1e1e" x="512.4" y="25.9" width="1098" height="24.65" shape-rendering="crispEdges"/><rect fill="#1e1e1e" x="0" y="50.3" width="12.2" height="24.65" shape-rendering="crispEdges"/><rect fill="#1e1e1e" x="12.2" y="50.3" width="146.4" height="24.65" shape-rendering="crispEdges"/><rect fill="#1e1e1e" x="158.6" y="50.3" width="12.2" height="24.65" shape-rendering="crispEdges"/><rect fill="#1e1e1e" x="170.8" y="50.3" width="1439.6" height="24.65" shape-rendering="crispEdges"/><rect fill="#242f38" x="0" y="74.7" width="268.4" height="24.65" shape-rendering="crispEdges"/><rect fill="#242f38" x="268.4" y="74.7" width="158.6" height="24.65" shape-rendering="crispEdges"/><rect fill="#242f38" x="427" y="74.7" width="305" height="24.65" shape-rendering="crispEdges"/><rect fill="#242f38" x="732" y="74.7" width="109.8" height="24.65" shape-rendering="crispEdges"/><rect fill="#222a31" x="841.8" y="74.7" width="768.6" height="24.65" shape-rendering="crispEdges"/><rect fill="#153854" x="0" y="99.1" width="268.4" height="24.65" shape-rendering="crispEdges"/><rect fill="#1e1e1e" x="268.4" y="99.1" width="158.6" height="24.65" shape-rendering="crispEdges"/><rect fill="#1e1e1e" x="427" y="99.1" width="305" height="24.65" shape-rendering="crispEdges"/><rect fill="#1e1e1e" x="732" y="99.1" width="109.8" height="24.65" shape-rendering="crispEdges"/><rect fill="#1e1e1e" x="841.8" y="99.1" width="768.6" height="24.65" shape-rendering="crispEdges"/><rect fill="#1e1e1e" x="0" y="123.5" width="268.4" height="24.65" shape-rendering="crispEdges"/><rect fill="#1e1e1e" x="268.4" y="123.5" width="158.6" height="24.65" shape-rendering="crispEdges"/><rect fill="#1e1e1e" x="427" y="123.5" width="305" height="24.65" shape-rendering="crispEdges"/><rect fill="#1e1e1e" x="732" y="123.5" width="109.8" height="24.65" shape-rendering="crispEdges"/><rect fill="#1e1e1e" x="841.8" y="123.5" width="768.6" height="24.65" shape-rendering="crispEdges"/><rect fill="#1e1e1e" x="0" y="147.9" width="268.4" height="24.65" shape-rendering="crispEdges"/><rect fill="#1e1e1e" x="268.4" y="147.9" width="158.6" height="24.65" shape-rendering="crispEdges"/><rect fill="#1e1e1e" x="427" y="147.9" width="305" height="24.65" shape-rendering="crispEdges"/><rect fill="#1e1e1e" x="732" y="147.9" width="109.8" height="24.65" shape-rendering="crispEdges"/><rect fill="#1e1e1e" x="841.8" y="147.9" width="768.6" height="24.65" shape-rendering="crispEdges"/><rect fill="#1e1e1e" x="0" y="172.3" width="268.4" height="24.65" shape-rendering="crispEdges"/><rect fill="#1e1e1e" x="268.4" y="172.3" width="158.6" height="24.65" shape-rendering="crispEdges"/><rect fill="#1e1e1e" x="427" y="172.3" width="305" height="24.65" shape-rendering="crispEdges"/><rect fill="#1e1e1e" x="732" y="172.3" width="109.8" height="24.65" shape-rendering="crispEdges"/><rect fill="#1e1e1e" x="841.8" y="172.3" width="768.6" height="24.65" shape-rendering="crispEdges"/><rect fill="#1e1e1e" x="0" y="196.7" width="1610.4" height="24.65" shape-rendering="crispEdges"/><rect fill="#1e1e1e" x="0" y="221.1" width="1610.4" height="24.65" shape-rendering="crispEdges"/><rect fill="#1e1e1e" x="0" y="245.5" width="1610.4" height="24.65" shape-rendering="crispEdges"/><rect fill="#1e1e1e" x="0" y="269.9" width="1610.4" height="24.65" shape-rendering="crispEdges"/><rect fill="#1e1e1e" x="0" y="294.3" width="1610.4" height="24.65" shape-rendering="crispEdges"/><rect fill="#1e1e1e" x="0" y="318.7" width="1610.4" height="24.65" shape-rendering="crispEdges"/><rect fill="#1e1e1e" x="0" y="343.1" width="1610.4" height="24.65" shape-rendering="crispEdges"/><rect fill="#1e1e1e" x="0" y="367.5" width="1610.4" height="24.65" shape-rendering="crispEdges"/><rect fill="#1e1e1e" x="0" y="391.9" width="1610.4" height="24.65" shape-rendering="crispEdges"/><rect fill="#1e1e1e" x="0" y="416.3" width="1610.4" height="24.65" shape-rendering="crispEdges"/><rect fill="#1e1e1e" x="0" y="440.7" width="1610.4" height="24.65" shape-rendering="crispEdges"/><rect fill="#1e1e1e" x="0" y="465.1" width="1610.4" height="24.65" shape-rendering="crispEdges"/><rect fill="#1e1e1e" x="0" y="489.5" width="1610.4" height="24.65" shape-rendering="crispEdges"/><rect fill="#1e1e1e" x="0" y="513.9" width="1610.4" height="24.65" shape-rendering="crispEdges"/><rect fill="#1e1e1e" x="0" y="538.3" width="1610.4" height="24.65" shape-rendering="crispEdges"/><rect fill="#1e1e1e" x="0" y="562.7" width="1610.4" height="24.65" shape-rendering="crispEdges"/><rect fill="#1e1e1e" x="0" y="587.1" width="1610.4" height="24.65" shape-rendering="crispEdges"/><rect fill="#1e1e1e" x="0" y="611.5" width="1610.4" height="24.65" shape-rendering="crispEdges"/><rect fill="#1e1e1e" x="0" y="635.9" width="1610.4" height="24.65" shape-rendering="crispEdges"/><rect fill="#1e1e1e" x="0" y="660.3" width="1610.4" height="24.65" shape-rendering="crispEdges"/><rect fill="#1e1e1e" x="0" y="684.7" width="1610.4" height="24.65" shape-rendering="crispEdges"/><rect fill="#1e1e1e" x="0" y="709.1" width="1610.4" height="24.65" shape-rendering="crispEdges"/><rect fill="#1e1e1e" x="0" y="733.5" width="1610.4" height="24.65" shape-rendering="crispEdges"/><rect fill="#1e1e1e" x="0" y="757.9" width="1610.4" height="24.65" shape-rendering="crispEdges"/><rect fill="#1e1e1e" x="0" y="782.3" width="1610.4" height="24.65" shape-rendering="crispEdges"/><rect fill="#1e1e1e" x="0" y="806.7" width="1610.4" height="24.65" shape-rendering="crispEdges"/><rect fill="#1e1e1e" x="0" y="831.1" width="1610.4" height="24.65" shape-rendering="crispEdges"/><rect fill="#1e1e1e" x="0" y="855.5" width="1610.4" height="24.65" shape-rendering="crispEdges"/><rect fill="#1e1e1e" x="0" y="879.9" width="1610.4" height="24.65" shape-rendering="crispEdges"/><rect fill="#1e1e1e" x="0" y="904.3" width="1610.4" height="24.65" shape-rendering="crispEdges"/><rect fill="#1e1e1e" x="0" y="928.7" width="1610.4" height="24.65" shape-rendering="crispEdges"/><rect fill="#242f38" x="0" y="953.1" width="36.6" height="24.65" shape-rendering="crispEdges"/><rect fill="#242f38" x="36.6" y="953.1" width="97.6" height="24.65" shape-rendering="crispEdges"/><rect fill="#242f38" x="134.2" y="953.1" width="36.6" height="24.65" shape-rendering="crispEdges"/><rect fill="#242f38" x="170.8" y="953.1" width="73.2" height="24.65" shape-rendering="crispEdges"/><rect fill="#242f38" x="244" y="953.1" width="36.6" height="24.65" shape-rendering="crispEdges"/><rect fill="#242f38" x="280.6" y="953.1" width="61" height="24.65" shape-rendering="crispEdges"/><rect fill="#242f38" x="341.6" y="953.1" width="36.6" height="24.65" shape-rendering="crispEdges"/><rect fill="#242f38" x="378.2" y="953.1" width="134.2" height="24.65" shape-rendering="crispEdges"/><rect fill="#242f38" x="512.4" y="953.1" width="36.6" height="24.65" shape-rendering="crispEdges"/><rect fill="#242f38" x="549" y="953.1" width="73.2" height="24.65" shape-rendering="crispEdges"/><rect fill="#242f38" x="622.2" y="953.1" width="36.6" height="24.65" shape-rendering="crispEdges"/><rect fill="#242f38" x="658.8" y="953.1" width="97.6" height="24.65" shape-rendering="crispEdges"/><rect fill="#242f38" x="756.4" y="953.1" width="36.6" height="24.65" shape-rendering="crispEdges"/><rect fill="#242f38" x="793" y="953.1" width="85.4" height="24.65" shape-rendering="crispEdges"/><rect fill="#242f38" x="878.4" y="953.1" width="36.6" height="24.65" shape-rendering="crispEdges"/><rect fill="#242f38" x="915" y="953.1" width="73.2" height="24.65" shape-rendering="crispEdges"/><rect fill="#242f38" x="988.2" y="953.1" width="36.6" height="24.65" shape-rendering="crispEdges"/><rect fill="#242f38" x="1024.8" y="953.1" width="134.2" height="24.65" shape-rendering="crispEdges"/><rect fill="#242f38" x="1159" y="953.1" width="36.6" height="24.65" shape-rendering="crispEdges"/><rect fill="#242f38" x="1195.6" y="953.1" width="122" height="24.65" shape-rendering="crispEdges"/><rect fill="#242f38" x="1317.6" y="953.1" width="36.6" height="24.65" shape-rendering="crispEdges"/><rect fill="#242f38" x="1354.2" y="953.1" width="61" height="24.65" shape-rendering="crispEdges"/><rect fill="#242f38" x="1415.2" y="953.1" width="36.6" height="24.65" shape-rendering="crispEdges"/><rect fill="#242f38" x="1451.8" y="953.1" width="12.2" height="24.65" shape-rendering="crispEdges"/><rect fill="#242f38" x="1464" y="953.1" width="12.2" height="24.65" shape-rendering="crispEdges"/><rect fill="#242f38" x="1476.2" y="953.1" width="24.4" height="24.65" shape-rendering="crispEdges"/><rect fill="#242f38" x="1500.6" y="953.1" width="12.2" height="24.65" shape-rendering="crispEdges"/><rect fill="#242f38" x="1512.8" y="953.1" width="85.4" height="24.65" shape-rendering="crispEdges"/><rect fill="#242f38" x="1598.2" y="953.1" width="12.2" height="24.65" shape-rendering="crispEdges"/>
    <g class="terminal-323734363-matrix">
    <text class="terminal-323734363-r2" x="12.2" y="20" textLength="12.2" clip-path="url(#terminal-323734363-line-0)">⭘</text><text class="terminal-323734363-r2" x="573.4" y="20" textLength="73.2" clip-path="url(#terminal-323734363-line-0)">Praxis</text><text class="terminal-323734363-r3" x="646.6" y="20" textLength="36.6" clip-path="url(#terminal-323734363-line-0)">&#160;—&#160;</text><text class="terminal-323734363-r3" x="683.2" y="20" textLength="329.4" clip-path="url(#terminal-323734363-line-0)">Agent-Led&#160;Business&#160;Analysis</text><text class="terminal-323734363-r1" x="1610.4" y="20" textLength="12.2" clip-path="url(#terminal-323734363-line-0)">
</text><text class="terminal-323734363-r4" x="12.2" y="44.4" textLength="146.4" clip-path="url(#terminal-323734363-line-1)">Stakeholders</text><text class="terminal-323734363-r5" x="183" y="44.4" textLength="109.8" clip-path="url(#terminal-323734363-line-1)">Questions</text><text class="terminal-323734363-r5" x="317.2" y="44.4" textLength="97.6" clip-path="url(#terminal-323734363-line-1)">Glossary</text><text class="terminal-323734363-r5" x="439.2" y="44.4" textLength="61" clip-path="url(#terminal-323734363-line-1)">Risks</text><text class="terminal-323734363-r1" x="1610.4" y="44.4" textLength="12.2" clip-path="url(#terminal-323734363-line-1)">
</text><text class="terminal-323734363-r6" x="0" y="68.8" textLength="12.2" clip-path="url(#terminal-323734363-line-2)">╸</text><text class="terminal-323734363-r7" x="12.2" y="68.8" textLength="146.4" clip-path="url(#terminal-323734363-line-2)">━━━━━━━━━━━━</text><text class="terminal-323734363-r6" x="158.6" y="68.8" textLength="12.2" clip-path="url(#terminal-323734363-line-2)">╺</text><text class="terminal-323734363-r6" x="170.8" y="68.8" textLength="1439.6" clip-path="url(#terminal-323734363-line-2)">━━━━━━━━━━━━━━━━━━━━━━━━━━━━━━━━━━━━━━━━━━━━━━━━━━━━━━━━━━━━━━━━━━━━━━━━━━━━━━━━━━━━━━━━━━━━━━━━━━━━━━━━━━━━━━━━━━━━━━</text><text class="terminal-323734363-r1" x="1610.4" y="68.8" textLength="12.2" clip-path="url(#terminal-323734363-line-2)">
</text><text class="terminal-323734363-r8" x="0" y="93.2" textLength="268.4" clip-path="url(#terminal-323734363-line-3)">&#160;ID&#160;&#160;&#160;&#160;&#160;&#160;&#160;&#160;&#160;&#160;&#160;&#160;&#160;&#160;&#160;&#160;&#160;&#160;&#160;</text><text class="terminal-323734363-r8" x="268.4" y="93.2" textLength="158.6" clip-path="url(#terminal-323734363-line-3)">&#160;Name&#160;&#160;&#160;&#160;&#160;&#160;&#160;&#160;</text><text class="terminal-323734363-r8" x="427" y="93.2" textLength="305" clip-path="url(#terminal-323734363-line-3)">&#160;Role&#160;&#160;&#160;&#160;&#160;&#160;&#160;&#160;&#160;&#160;&#160;&#160;&#160;&#160;&#160;&#160;&#160;&#160;&#160;&#160;</text><text class="terminal-323734363-r8" x="732" y="93.2" textLength="109.8" clip-path="url(#terminal-323734363-line-3)">&#160;Contact&#160;</text><text class="terminal-323734363-r1" x="1610.4" y="93.2" textLength="12.2" clip-path="url(#terminal-323734363-line-3)">
</text><text class="terminal-323734363-r2" x="0" y="117.6" textLength="268.4" clip-path="url(#terminal-323734363-line-4)">&#160;alice-chen-c1cba63b&#160;&#160;</text><text class="terminal-323734363-r2" x="268.4" y="117.6" textLength="158.6" clip-path="url(#terminal-323734363-line-4)">&#160;Alice&#160;Chen&#160;&#160;</text><text class="terminal-323734363-r2" x="427" y="117.6" textLength="305" clip-path="url(#terminal-323734363-line-4)">&#160;VP&#160;of&#160;Lending&#160;&#160;&#160;&#160;&#160;&#160;&#160;&#160;&#160;&#160;&#160;</text><text class="terminal-323734363-r2" x="732" y="117.6" textLength="109.8" clip-path="url(#terminal-323734363-line-4)">&#160;email&#160;&#160;&#160;</text><text class="terminal-323734363-r1" x="1610.4" y="117.6" textLength="12.2" clip-path="url(#terminal-323734363-line-4)">
</text><text class="terminal-323734363-r2" x="0" y="142" textLength="268.4" clip-path="url(#terminal-323734363-line-5)">&#160;devon-price-14d0abcf&#160;</text><text class="terminal-323734363-r2" x="268.4" y="142" textLength="158.6" clip-path="url(#terminal-323734363-line-5)">&#160;Devon&#160;Price&#160;</text><text class="terminal-323734363-r2" x="427" y="142" textLength="305" clip-path="url(#terminal-323734363-line-5)">&#160;Product&#160;Manager&#160;&#160;&#160;&#160;&#160;&#160;&#160;&#160;&#160;</text><text class="terminal-323734363-r2" x="732" y="142" textLength="109.8" clip-path="url(#terminal-323734363-line-5)">&#160;email&#160;&#160;&#160;</text><text class="terminal-323734363-r1" x="1610.4" y="142" textLength="12.2" clip-path="url(#terminal-323734363-line-5)">
</text><text class="terminal-323734363-r2" x="0" y="166.4" textLength="268.4" clip-path="url(#terminal-323734363-line-6)">&#160;priya-nair-4a92e0f9&#160;&#160;</text><text class="terminal-323734363-r2" x="268.4" y="166.4" textLength="158.6" clip-path="url(#terminal-323734363-line-6)">&#160;Priya&#160;Nair&#160;&#160;</text><text class="terminal-323734363-r2" x="427" y="166.4" textLength="305" clip-path="url(#terminal-323734363-line-6)">&#160;Loan&#160;Operations&#160;Manager&#160;</text><text class="terminal-323734363-r2" x="732" y="166.4" textLength="109.8" clip-path="url(#terminal-323734363-line-6)">&#160;email&#160;&#160;&#160;</text><text class="terminal-323734363-r1" x="1610.4" y="166.4" textLength="12.2" clip-path="url(#terminal-323734363-line-6)">
</text><text class="terminal-323734363-r2" x="0" y="190.8" textLength="268.4" clip-path="url(#terminal-323734363-line-7)">&#160;sam-rivera-d0fed16b&#160;&#160;</text><text class="terminal-323734363-r2" x="268.4" y="190.8" textLength="158.6" clip-path="url(#terminal-323734363-line-7)">&#160;Sam&#160;Rivera&#160;&#160;</text><text class="terminal-323734363-r2" x="427" y="190.8" textLength="305" clip-path="url(#terminal-323734363-line-7)">&#160;Engineering&#160;Lead&#160;&#160;&#160;&#160;&#160;&#160;&#160;&#160;</text><text class="terminal-323734363-r2" x="732" y="190.8" textLength="109.8" clip-path="url(#terminal-323734363-line-7)">&#160;email&#160;&#160;&#160;</text><text class="terminal-323734363-r1" x="1610.4" y="190.8" textLength="12.2" clip-path="url(#terminal-323734363-line-7)">
</text><text class="terminal-323734363-r1" x="1610.4" y="215.2" textLength="12.2" clip-path="url(#terminal-323734363-line-8)">
</text><text class="terminal-323734363-r1" x="1610.4" y="239.6" textLength="12.2" clip-path="url(#terminal-323734363-line-9)">
</text><text class="terminal-323734363-r1" x="1610.4" y="264" textLength="12.2" clip-path="url(#terminal-323734363-line-10)">
</text><text class="terminal-323734363-r1" x="1610.4" y="288.4" textLength="12.2" clip-path="url(#terminal-323734363-line-11)">
</text><text class="terminal-323734363-r1" x="1610.4" y="312.8" textLength="12.2" clip-path="url(#terminal-323734363-line-12)">
</text><text class="terminal-323734363-r1" x="1610.4" y="337.2" textLength="12.2" clip-path="url(#terminal-323734363-line-13)">
</text><text class="terminal-323734363-r1" x="1610.4" y="361.6" textLength="12.2" clip-path="url(#terminal-323734363-line-14)">
</text><text class="terminal-323734363-r1" x="1610.4" y="386" textLength="12.2" clip-path="url(#terminal-323734363-line-15)">
</text><text class="terminal-323734363-r1" x="1610.4" y="410.4" textLength="12.2" clip-path="url(#terminal-323734363-line-16)">
</text><text class="terminal-323734363-r1" x="1610.4" y="434.8" textLength="12.2" clip-path="url(#terminal-323734363-line-17)">
</text><text class="terminal-323734363-r1" x="1610.4" y="459.2" textLength="12.2" clip-path="url(#terminal-323734363-line-18)">
</text><text class="terminal-323734363-r1" x="1610.4" y="483.6" textLength="12.2" clip-path="url(#terminal-323734363-line-19)">
</text><text class="terminal-323734363-r1" x="1610.4" y="508" textLength="12.2" clip-path="url(#terminal-323734363-line-20)">
</text><text class="terminal-323734363-r1" x="1610.4" y="532.4" textLength="12.2" clip-path="url(#terminal-323734363-line-21)">
</text><text class="terminal-323734363-r1" x="1610.4" y="556.8" textLength="12.2" clip-path="url(#terminal-323734363-line-22)">
</text><text class="terminal-323734363-r1" x="1610.4" y="581.2" textLength="12.2" clip-path="url(#terminal-323734363-line-23)">
</text><text class="terminal-323734363-r1" x="1610.4" y="605.6" textLength="12.2" clip-path="url(#terminal-323734363-line-24)">
</text><text class="terminal-323734363-r1" x="1610.4" y="630" textLength="12.2" clip-path="url(#terminal-323734363-line-25)">
</text><text class="terminal-323734363-r1" x="1610.4" y="654.4" textLength="12.2" clip-path="url(#terminal-323734363-line-26)">
</text><text class="terminal-323734363-r1" x="1610.4" y="678.8" textLength="12.2" clip-path="url(#terminal-323734363-line-27)">
</text><text class="terminal-323734363-r1" x="1610.4" y="703.2" textLength="12.2" clip-path="url(#terminal-323734363-line-28)">
</text><text class="terminal-323734363-r1" x="1610.4" y="727.6" textLength="12.2" clip-path="url(#terminal-323734363-line-29)">
</text><text class="terminal-323734363-r1" x="1610.4" y="752" textLength="12.2" clip-path="url(#terminal-323734363-line-30)">
</text><text class="terminal-323734363-r1" x="1610.4" y="776.4" textLength="12.2" clip-path="url(#terminal-323734363-line-31)">
</text><text class="terminal-323734363-r1" x="1610.4" y="800.8" textLength="12.2" clip-path="url(#terminal-323734363-line-32)">
</text><text class="terminal-323734363-r1" x="1610.4" y="825.2" textLength="12.2" clip-path="url(#terminal-323734363-line-33)">
</text><text class="terminal-323734363-r1" x="1610.4" y="849.6" textLength="12.2" clip-path="url(#terminal-323734363-line-34)">
</text><text class="terminal-323734363-r1" x="1610.4" y="874" textLength="12.2" clip-path="url(#terminal-323734363-line-35)">
</text><text class="terminal-323734363-r1" x="1610.4" y="898.4" textLength="12.2" clip-path="url(#terminal-323734363-line-36)">
</text><text class="terminal-323734363-r1" x="1610.4" y="922.8" textLength="12.2" clip-path="url(#terminal-323734363-line-37)">
</text><text class="terminal-323734363-r1" x="1610.4" y="947.2" textLength="12.2" clip-path="url(#terminal-323734363-line-38)">
</text><text class="terminal-323734363-r9" x="0" y="971.6" textLength="36.6" clip-path="url(#terminal-323734363-line-39)">&#160;r&#160;</text><text class="terminal-323734363-r2" x="36.6" y="971.6" textLength="97.6" clip-path="url(#terminal-323734363-line-39)">Refresh&#160;</text><text class="terminal-323734363-r9" x="134.2" y="971.6" textLength="36.6" clip-path="url(#terminal-323734363-line-39)">&#160;1&#160;</text><text class="terminal-323734363-r2" x="170.8" y="971.6" textLength="73.2" clip-path="url(#terminal-323734363-line-39)">Queue&#160;</text><text class="terminal-323734363-r9" x="244" y="971.6" textLength="36.6" clip-path="url(#terminal-323734363-line-39)">&#160;2&#160;</text><text class="terminal-323734363-r2" x="280.6" y="971.6" textLength="61" clip-path="url(#terminal-323734363-line-39)">Chat&#160;</text><text class="terminal-323734363-r9" x="341.6" y="971.6" textLength="36.6" clip-path="url(#terminal-323734363-line-39)">&#160;3&#160;</text><text class="terminal-323734363-r2" x="378.2" y="971.6" textLength="134.2" clip-path="url(#terminal-323734363-line-39)">Engagement&#160;</text><text class="terminal-323734363-r9" x="512.4" y="971.6" textLength="36.6" clip-path="url(#terminal-323734363-line-39)">&#160;4&#160;</text><text class="terminal-323734363-r2" x="549" y="971.6" textLength="73.2" clip-path="url(#terminal-323734363-line-39)">Audit&#160;</text><text class="terminal-323734363-r9" x="622.2" y="971.6" textLength="36.6" clip-path="url(#terminal-323734363-line-39)">&#160;5&#160;</text><text class="terminal-323734363-r2" x="658.8" y="971.6" textLength="97.6" clip-path="url(#terminal-323734363-line-39)">Backlog&#160;</text><text class="terminal-323734363-r9" x="756.4" y="971.6" textLength="36.6" clip-path="url(#terminal-323734363-line-39)">&#160;6&#160;</text><text class="terminal-323734363-r2" x="793" y="971.6" textLength="85.4" clip-path="url(#terminal-323734363-line-39)">Config&#160;</text><text class="terminal-323734363-r9" x="878.4" y="971.6" textLength="36.6" clip-path="url(#terminal-323734363-line-39)">&#160;7&#160;</text><text class="terminal-323734363-r2" x="915" y="971.6" textLength="73.2" clip-path="url(#terminal-323734363-line-39)">Setup&#160;</text><text class="terminal-323734363-r9" x="988.2" y="971.6" textLength="36.6" clip-path="url(#terminal-323734363-line-39)">&#160;8&#160;</text><text class="terminal-323734363-r2" x="1024.8" y="971.6" textLength="134.2" clip-path="url(#terminal-323734363-line-39)">Priorities&#160;</text><text class="terminal-323734363-r9" x="1159" y="971.6" textLength="36.6" clip-path="url(#terminal-323734363-line-39)">&#160;9&#160;</text><text class="terminal-323734363-r2" x="1195.6" y="971.6" textLength="122" clip-path="url(#terminal-323734363-line-39)">Artifacts&#160;</text><text class="terminal-323734363-r9" x="1317.6" y="971.6" textLength="36.6" clip-path="url(#terminal-323734363-line-39)">&#160;q&#160;</text><text class="terminal-323734363-r2" x="1354.2" y="971.6" textLength="61" clip-path="url(#terminal-323734363-line-39)">Quit&#160;</text><text class="terminal-323734363-r9" x="1415.2" y="971.6" textLength="36.6" clip-path="url(#terminal-323734363-line-39)">&#160;?&#160;</text><text class="terminal-323734363-r2" x="1451.8" y="971.6" textLength="12.2" clip-path="url(#terminal-323734363-line-39)">H</text><text class="terminal-323734363-r10" x="1464" y="971.6" textLength="12.2" clip-path="url(#terminal-323734363-line-39)">▏</text><text class="terminal-323734363-r9" x="1476.2" y="971.6" textLength="24.4" clip-path="url(#terminal-323734363-line-39)">^p</text><text class="terminal-323734363-r2" x="1512.8" y="971.6" textLength="85.4" clip-path="url(#terminal-323734363-line-39)">palette</text>
    </g>
    </g>
</svg>
