<svg class="rich-terminal" viewBox="0 0 1629 1026.0" xmlns="http://www.w3.org/2000/svg">
    <!-- Generated with Rich https://www.textualize.io -->
    <style>

    @font-face {
        font-family: "Fira Code";
        src: local("FiraCode-Regular"),
                url("https://cdnjs.cloudflare.com/ajax/libs/firacode/6.2.0/woff2/FiraCode-Regular.woff2") format("woff2"),
                url("https://cdnjs.cloudflare.com/ajax/libs/firacode/6.2.0/woff/FiraCode-Regular.woff") format("woff");
        font-style: normal;
        font-weight: 400;
    }
    @font-face {
        font-family: "Fira Code";
        src: local("FiraCode-Bold"),
                url("https://cdnjs.cloudflare.com/ajax/libs/firacode/6.2.0/woff2/FiraCode-Bold.woff2") format("woff2"),
                url("https://cdnjs.cloudflare.com/ajax/libs/firacode/6.2.0/woff/FiraCode-Bold.woff") format("woff");
        font-style: bold;
        font-weight: 700;
    }

    .terminal-2755435435-matrix {
        font-family: Fira Code, monospace;
        font-size: 20px;
        line-height: 24.4px;
        font-variant-east-asian: full-width;
    }

    .terminal-2755435435-title {
        font-size: 18px;
        font-weight: bold;
        font-family: arial;
    }

    .terminal-2755435435-r1 { fill: #c5c8c6 }
.terminal-2755435435-r2 { fill: #e0e0e0 }
.terminal-2755435435-r3 { fill: #a0a3a6 }
.terminal-2755435435-r4 { fill: #e0e0e0;font-weight: bold }
.terminal-2755435435-r5 { fill: #ffa62b;font-weight: bold }
.terminal-2755435435-r6 { fill: #495259 }
    </style>

    <defs>
    <clipPath id="terminal-2755435435-clip-terminal">
      <rect x="0" y="0" width="1609.3999999999999" height="975.0" />
    </clipPath>
    <clipPath id="terminal-2755435435-line-0">
    <rect x="0" y="1.5" width="1610.4" height="24.65"/>
            </clipPath>
<clipPath id="terminal-2755435435-line-1">
    <rect x="0" y="25.9" width="1610.4" height="24.65"/>
            </clipPath>
<clipPath id="terminal-2755435435-line-2">
    <rect x="0" y="50.3" width="1610.4" height="24.65"/>
            </clipPath>
<clipPath id="terminal-2755435435-line-3">
    <rect x="0" y="74.7" width="1610.4" height="24.65"/>
            </clipPath>
<clipPath id="terminal-2755435435-line-4">
    <rect x="0" y="99.1" width="1610.4" height="24.65"/>
            </clipPath>
<clipPath id="terminal-2755435435-line-5">
    <rect x="0" y="123.5" width="1610.4" height="24.65"/>
            </clipPath>
<clipPath id="terminal-2755435435-line-6">
    <rect x="0" y="147.9" width="1610.4" height="24.65"/>
            </clipPath>
<clipPath id="terminal-2755435435-line-7">
    <rect x="0" y="172.3" width="1610.4" height="24.65"/>
            </clipPath>
<clipPath id="terminal-2755435435-line-8">
    <rect x="0" y="196.7" width="1610.4" height="24.65"/>
            </clipPath>
<clipPath id="terminal-2755435435-line-9">
    <rect x="0" y="221.1" width="1610.4" height="24.65"/>
            </clipPath>
<clipPath id="terminal-2755435435-line-10">
    <rect x="0" y="245.5" width="1610.4" height="24.65"/>
            </clipPath>
<clipPath id="terminal-2755435435-line-11">
    <rect x="0" y="269.9" width="1610.4" height="24.65"/>
            </clipPath>
<clipPath id="terminal-2755435435-line-12">
    <rect x="0" y="294.3" width="1610.4" height="24.65"/>
            </clipPath>
<clipPath id="terminal-2755435435-line-13">
    <rect x="0" y="318.7" width="1610.4" height="24.65"/>
            </clipPath>
<clipPath id="terminal-2755435435-line-14">
    <rect x="0" y="343.1" width="1610.4" height="24.65"/>
            </clipPath>
<clipPath id="terminal-2755435435-line-15">
    <rect x="0" y="367.5" width="1610.4" height="24.65"/>
            </clipPath>
<clipPath id="terminal-2755435435-line-16">
    <rect x="0" y="391.9" width="1610.4" height="24.65"/>
            </clipPath>
<clipPath id="terminal-2755435435-line-17">
    <rect x="0" y="416.3" width="1610.4" height="24.65"/>
            </clipPath>
<clipPath id="terminal-2755435435-line-18">
    <rect x="0" y="440.7" width="1610.4" height="24.65"/>
            </clipPath>
<clipPath id="terminal-2755435435-line-19">
    <rect x="0" y="465.1" width="1610.4" height="24.65"/>
            </clipPath>
<clipPath id="terminal-2755435435-line-20">
    <rect x="0" y="489.5" width="1610.4" height="24.65"/>
            </clipPath>
<clipPath id="terminal-2755435435-line-21">
    <rect x="0" y="513.9" width="1610.4" height="24.65"/>
            </clipPath>
<clipPath id="terminal-2755435435-line-22">
    <rect x="0" y="538.3" width="1610.4" height="24.65"/>
            </clipPath>
<clipPath id="terminal-2755435435-line-23">
    <rect x="0" y="562.7" width="1610.4" height="24.65"/>
            </clipPath>
<clipPath id="terminal-2755435435-line-24">
    <rect x="0" y="587.1" width="1610.4" height="24.65"/>
            </clipPath>
<clipPath id="terminal-2755435435-line-25">
    <rect x="0" y="611.5" width="1610.4" height="24.65"/>
            </clipPath>
<clipPath id="terminal-2755435435-line-26">
    <rect x="0" y="635.9" width="1610.4" height="24.65"/>
            </clipPath>
<clipPath id="terminal-2755435435-line-27">
    <rect x="0" y="660.3" width="1610.4" height="24.65"/>
            </clipPath>
<clipPath id="terminal-2755435435-line-28">
    <rect x="0" y="684.7" width="1610.4" height="24.65"/>
            </clipPath>
<clipPath id="terminal-2755435435-line-29">
    <rect x="0" y="709.1" width="1610.4" height="24.65"/>
            </clipPath>
<clipPath id="terminal-2755435435-line-30">
    <rect x="0" y="733.5" width="1610.4" height="24.65"/>
            </clipPath>
<clipPath id="terminal-2755435435-line-31">
    <rect x="0" y="757.9" width="1610.4" height="24.65"/>
            </clipPath>
<clipPath id="terminal-2755435435-line-32">
    <rect x="0" y="782.3" width="1610.4" height="24.65"/>
            </clipPath>
<clipPath id="terminal-2755435435-line-33">
    <rect x="0" y="806.7" width="1610.4" height="24.65"/>
            </clipPath>
<clipPath id="terminal-2755435435-line-34">
    <rect x="0" y="831.1" width="1610.4" height="24.65"/>
            </clipPath>
<clipPath id="terminal-2755435435-line-35">
    <rect x="0" y="855.5" width="1610.4" height="24.65"/>
            </clipPath>
<clipPath id="terminal-2755435435-line-36">
    <rect x="0" y="879.9" width="1610.4" height="24.65"/>
            </clipPath>
<clipPath id="terminal-2755435435-line-37">
    <rect x="0" y="904.3" width="1610.4" height="24.65"/>
            </clipPath>
<clipPath id="terminal-2755435435-line-38">
    <rect x="0" y="928.7" width="1610.4" height="24.65"/>
            </clipPath>
    </defs>

    <rect fill="#292929" stroke="rgba(255,255,255,0.35)" stroke-width="1" x="1" y="1" width="1627" height="1024" rx="8"/><text class="terminal-2755435435-title" fill="#c5c8c6" text-anchor="middle" x="813" y="27">Praxis</text>
            <g transform="translate(26,22)">
            <circle cx="0" cy="0" r="7" fill="#ff5f57"/>
            <circle cx="22" cy="0" r="7" fill="#febc2e"/>
            <circle cx="44" cy="0" r="7" fill="#28c840"/>
            </g>
        
    <g transform="translate(9, 41)" clip-path="url(#terminal-2755435435-clip-terminal)">
    <rect fill="#242f38" x="0" y="1.5" width="12.2" height="24.65" shape-rendering="crispEdges"/><rect fill="#242f38" x="12.2" y="1.5" width="12.2" height="24.65" shape-rendering="crispEdges"/><rect fill="#242f38" x="24.4" y="1.5" width="61" height="24.65" shape-rendering="crispEdges"/><rect fill="#242f38" x="85.4" y="1.5" width="12.2" height="24.65" shape-rendering="crispEdges"/><rect fill="#242f38" x="97.6" y="1.5" width="475.8" height="24.65" shape-rendering="crispEdges"/><rect fill="#242f38" x="573.4" y="1.5" width="73.2" height="24.65" shape-rendering="crispEdges"/><rect fill="#242f38" x="646.6" y="1.5" width="36.6" height="24.65" shape-rendering="crispEdges"/><rect fill="#242f38" x="683.2" y="1.5" width="329.4" height="24.65" shape-rendering="crispEdges"/><rect fill="#242f38" x="1012.6" y="1.5" width="475.8" height="24.65" shape-rendering="crispEdges"/><rect fill="#242f38" x="1488.4" y="1.5" width="12.2" height="24.65" shape-rendering="crispEdges"/><rect fill="#242f38" x="1500.6" y="1.5" width="0" height="24.65" shape-rendering="crispEdges"/><rect fill="#242f38" x="1500.6" y="1.5" width="97.6" height="24.65" shape-rendering="crispEdges"/><rect fill="#242f38" x="1598.2" y="1.5" width="12.2" height="24.65" shape-rendering="crispEdges"/><rect fill="#1e1e1e" x="0" y="25.9" width="158.6" height="24.65" shape-rendering="crispEdges"/><rect fill="#1e1e1e" x="158.6" y="25.9" width="1451.8" height="24.65" shape-rendering="crispEdges"/><rect fill="#1e1e1e" x="0" y="50.3" width="0" height="24.65" shape-rendering="crispEdges"/><rect fill="#1e1e1e" x="0" y="50.3" width="1610.4" height="24.65" shape-rendering="crispEdges"/><rect fill="#1e1e1e" x="0" y="74.7" width="1281" height="24.65" shape-rendering="crispEdges"/><rect fill="#1e1e1e" x="1281" y="74.7" width="329.4" height="24.65" shape-rendering="crispEdges"/><rect fill="#1e1e1e" x="0" y="99.1" width="0" height="24.65" shape-rendering="crispEdges"/><rect fill="#1e1e1e" x="0" y="99.1" width="1610.4" height="24.65" shape-rendering="crispEdges"/><rect fill="#1e1e1e" x="0" y="123.5" width="292.8" height="24.65" shape-rendering="crispEdges"/><rect fill="#1e1e1e" x="292.8" y="123.5" width="1317.6" height="24.65" shape-rendering="crispEdges"/><rect fill="#1e1e1e" x="0" y="147.9" width="427" height="24.65" shape-rendering="crispEdges"/><rect fill="#1e1e1e" x="427" y="147.9" width="1183.4" height="24.65" shape-rendering="crispEdges"/><rect fill="#1e1e1e" x="0" y="172.3" width="353.8" height="24.65" shape-rendering="crispEdges"/><rect fill="#1e1e1e" x="353.8" y="172.3" width="1256.6" height="24.65" shape-rendering="crispEdges"/><rect fill="#1e1e1e" x="0" y="196.7" width="793" height="24.65" shape-rendering="crispEdges"/><rect fill="#1e1e1e" x="793" y="196.7" width="817.4" height="24.65" shape-rendering="crispEdges"/><rect fill="#1e1e1e" x="0" y="221.1" width="524.6" height="24.65" shape-rendering="crispEdges"/><rect fill="#1e1e1e" x="524.6" y="221.1" width="1085.8" height="24.65" shape-rendering="crispEdges"/><rect fill="#1e1e1e" x="0" y="245.5" width="0" height="24.65" shape-rendering="crispEdges"/><rect fill="#1e1e1e" x="0" y="245.5" width="1610.4" height="24.65" shape-rendering="crispEdges"/><rect fill="#1e1e1e" x="0" y="269.9" width="256.2" height="24.65" shape-rendering="crispEdges"/><rect fill="#1e1e1e" x="256.2" y="269.9" width="1354.2" height="24.65" shape-rendering="crispEdges"/><rect fill="#1e1e1e" x="0" y="294.3" width="378.2" height="24.65" shape-rendering="crispEdges"/><rect fill="#1e1e1e" x="378.2" y="294.3" width="1232.2" height="24.65" shape-rendering="crispEdges"/><rect fill="#1e1e1e" x="0" y="318.7" width="915" height="24.65" shape-rendering="crispEdges"/><rect fill="#1e1e1e" x="915" y="318.7" width="695.4" height="24.65" shape-rendering="crispEdges"/><rect fill="#1e1e1e" x="0" y="343.1" width="866.2" height="24.65" shape-rendering="crispEdges"/><rect fill="#1e1e1e" x="866.2" y="343.1" width="744.2" height="24.65" shape-rendering="crispEdges"/><rect fill="#1e1e1e" x="0" y="367.5" width="610" height="24.65" shape-rendering="crispEdges"/><rect fill="#1e1e1e" x="610" y="367.5" width="1000.4" height="24.65" shape-rendering="crispEdges"/><rect fill="#1e1e1e" x="0" y="391.9" width="0" height="24.65" shape-rendering="crispEdges"/><rect fill="#1e1e1e" x="0" y="391.9" width="1610.4" height="24.65" shape-rendering="crispEdges"/><rect fill="#1e1e1e" x="0" y="416.3" width="195.2" height="24.65" shape-rendering="crispEdges"/><rect fill="#1e1e1e" x="195.2" y="416.3" width="1415.2" height="24.65" shape-rendering="crispEdges"/><rect fill="#1e1e1e" x="0" y="440.7" width="671" height="24.65" shape-rendering="crispEdges"/><rect fill="#1e1e1e" x="671" y="440.7" width="939.4" height="24.65" shape-rendering="crispEdges"/><rect fill="#1e1e1e" x="0" y="465.1" width="805.2" height="24.65" shape-rendering="crispEdges"/><rect fill="#1e1e1e" x="805.2" y="465.1" width="805.2" height="24.65" shape-rendering="crispEdges"/><rect fill="#1e1e1e" x="0" y="489.5" width="280.6" height="24.65" shape-rendering="crispEdges"/><rect fill="#1e1e1e" x="280.6" y="489.5" width="1329.8" height="24.65" shape-rendering="crispEdges"/><rect fill="#1e1e1e" x="0" y="513.9" width="0" height="24.65" shape-rendering="crispEdges"/><rect fill="#1e1e1e" x="0" y="513.9" width="1610.4" height="24.65" shape-rendering="crispEdges"/><rect fill="#1e1e1e" x="0" y="538.3" width="719.8" height="24.65" shape-rendering="crispEdges"/><rect fill="#1e1e1e" x="719.8" y="538.3" width="890.6" height="24.65" shape-rendering="crispEdges"/><rect fill="#1e1e1e" x="0" y="562.7" width="817.4" height="24.65" shape-rendering="crispEdges"/><rect fill="#1e1e1e" x="817.4" y="562.7" width="793" height="24.65" shape-rendering="crispEdges"/><rect fill="#1e1e1e" x="0" y="587.1" width="1610.4" height="24.65" shape-rendering="crispEdges"/><rect fill="#1e1e1e" x="0" y="611.5" width="1610.4" height="24.65" shape-rendering="crispEdges"/><rect fill="#1e1e1e" x="0" y="635.9" width="1610.4" height="24.65" shape-rendering="crispEdges"/><rect fill="#1e1e1e" x="0" y="660.3" width="1610.4" height="24.65" shape-rendering="crispEdges"/><rect fill="#1e1e1e" x="0" y="684.7" width="1610.4" height="24.65" shape-rendering="crispEdges"/><rect fill="#1e1e1e" x="0" y="709.1" width="1610.4" height="24.65" shape-rendering="crispEdges"/><rect fill="#1e1e1e" x="0" y="733.5" width="1610.4" height="24.65" shape-rendering="crispEdges"/><rect fill="#1e1e1e" x="0" y="757.9" width="1610.4" height="24.65" shape-rendering="crispEdges"/><rect fill="#1e1e1e" x="0" y="782.3" width="1610.4" height="24.65" shape-rendering="crispEdges"/><rect fill="#1e1e1e" x="0" y="806.7" width="1610.4" height="24.65" shape-rendering="crispEdges"/><rect fill="#1e1e1e" x="0" y="831.1" width="1610.4" height="24.65" shape-rendering="crispEdges"/><rect fill="#1e1e1e" x="0" y="855.5" width="1610.4" height="24.65" shape-rendering="crispEdges"/><rect fill="#1e1e1e" x="0" y="879.9" width="1610.4" height="24.65" shape-rendering="crispEdges"/><rect fill="#1e1e1e" x="0" y="904.3" width="1610.4" height="24.65" shape-rendering="crispEdges"/><rect fill="#1e1e1e" x="0" y="928.7" width="1610.4" height="24.65" shape-rendering="crispEdges"/><rect fill="#242f38" x="0" y="953.1" width="36.6" height="24.65" shape-rendering="crispEdges"/><rect fill="#242f38" x="36.6" y="953.1" width="73.2" height="24.65" shape-rendering="crispEdges"/><rect fill="#242f38" x="109.8" y="953.1" width="36.6" height="24.65" shape-rendering="crispEdges"/><rect fill="#242f38" x="146.4" y="953.1" width="61" height="24.65" shape-rendering="crispEdges"/><rect fill="#242f38" x="207.4" y="953.1" width="36.6" height="24.65" shape-rendering="crispEdges"/><rect fill="#242f38" x="244" y="953.1" width="134.2" height="24.65" shape-rendering="crispEdges"/><rect fill="#242f38" x="378.2" y="953.1" width="36.6" height="24.65" shape-rendering="crispEdges"/><rect fill="#242f38" x="414.8" y="953.1" width="73.2" height="24.65" shape-rendering="crispEdges"/><rect fill="#242f38" x="488" y="953.1" width="36.6" height="24.65" shape-rendering="crispEdges"/><rect fill="#242f38" x="524.6" y="953.1" width="97.6" height="24.65" shape-rendering="crispEdges"/><rect fill="#242f38" x="622.2" y="953.1" width="36.6" height="24.65" shape-rendering="crispEdges"/><rect fill="#242f38" x="658.8" y="953.1" width="85.4" height="24.65" shape-rendering="crispEdges"/><rect fill="#242f38" x="744.2" y="953.1" width="36.6" height="24.65" shape-rendering="crispEdges"/><rect fill="#242f38" x="780.8" y="953.1" width="73.2" height="24.65" shape-rendering="crispEdges"/><rect fill="#242f38" x="854" y="953.1" width="36.6" height="24.65" shape-rendering="crispEdges"/><rect fill="#242f38" x="890.6" y="953.1" width="134.2" height="24.65" shape-rendering="crispEdges"/><rect fill="#242f38" x="1024.8" y="953.1" width="36.6" height="24.65" shape-rendering="crispEdges"/><rect fill="#242f38" x="1061.4" y="953.1" width="122" height="24.65" shape-rendering="crispEdges"/><rect fill="#242f38" x="1183.4" y="953.1" width="36.6" height="24.65" shape-rendering="crispEdges"/><rect fill="#242f38" x="1220" y="953.1" width="61" height="24.65" shape-rendering="crispEdges"/><rect fill="#242f38" x="1281" y="953.1" width="36.6" height="24.65" shape-rendering="crispEdges"/><rect fill="#242f38" x="1317.6" y="953.1" width="61" height="24.65" shape-rendering="crispEdges"/><rect fill="#242f38" x="1378.6" y="953.1" width="36.6" height="24.65" shape-rendering="crispEdges"/><rect fill="#242f38" x="1415.2" y="953.1" width="48.8" height="24.65" shape-rendering="crispEdges"/><rect fill="#242f38" x="1464" y="953.1" width="12.2" height="24.65" shape-rendering="crispEdges"/><rect fill="#242f38" x="1476.2" y="953.1" width="24.4" height="24.65" shape-rendering="crispEdges"/><rect fill="#242f38" x="1500.6" y="953.1" width="97.6" height="24.65" shape-rendering="crispEdges"/><rect fill="#242f38" x="1598.2" y="953.1" width="12.2" height="24.65" shape-rendering="crispEdges"/>
    <g class="terminal-2755435435-matrix">
    <text class="terminal-2755435435-r2" x="12.2" y="20" textLength="12.2" clip-path="url(#terminal-2755435435-line-0)">⭘</text><text class="terminal-2755435435-r2" x="573.4" y="20" textLength="73.2" clip-path="url(#terminal-2755435435-line-0)">Praxis</text><text class="terminal-2755435435-r3" x="646.6" y="20" textLength="36.6" clip-path="url(#terminal-2755435435-line-0)">&#160;—&#160;</text><text class="terminal-2755435435-r3" x="683.2" y="20" textLength="329.4" clip-path="url(#terminal-2755435435-line-0)">Agent-Led&#160;Business&#160;Analysis</text><text class="terminal-2755435435-r1" x="1610.4" y="20" textLength="12.2" clip-path="url(#terminal-2755435435-line-0)">
</text><text class="terminal-2755435435-r4" x="0" y="44.4" textLength="158.6" clip-path="url(#terminal-2755435435-line-1)">Project&#160;Setup</text><text class="terminal-2755435435-r1" x="1610.4" y="44.4" textLength="12.2" clip-path="url(#terminal-2755435435-line-1)">
</text><text class="terminal-2755435435-r1" x="1610.4" y="68.8" textLength="12.2" clip-path="url(#terminal-2755435435-line-2)">
</text><text class="terminal-2755435435-r2" x="0" y="93.2" textLength="1281" clip-path="url(#terminal-2755435435-line-3)">Current&#160;path:&#160;/var/folders/v6/vwzkl8s90rg90p060qzvq83m0000gn/T/praxis-screenshot-h1xeqf1o/demo-engagement</text><text class="terminal-2755435435-r1" x="1610.4" y="93.2" textLength="12.2" clip-path="url(#terminal-2755435435-line-3)">
</text><text class="terminal-2755435435-r1" x="1610.4" y="117.6" textLength="12.2" clip-path="url(#terminal-2755435435-line-4)">
</text><text class="terminal-2755435435-r2" x="0" y="142" textLength="292.8" clip-path="url(#terminal-2755435435-line-5)">Create&#160;a&#160;new&#160;engagement:</text><text class="terminal-2755435435-r1" x="1610.4" y="142" textLength="12.2" clip-path="url(#terminal-2755435435-line-5)">
</text><text class="terminal-2755435435-r2" x="0" y="166.4" textLength="427" clip-path="url(#terminal-2755435435-line-6)">&#160;&#160;mkdir&#160;-p&#160;~/engagements/my-project</text><text class="terminal-2755435435-r1" x="1610.4" y="166.4" textLength="12.2" clip-path="url(#terminal-2755435435-line-6)">
</text><text class="terminal-2755435435-r2" x="0" y="190.8" textLength="353.8" clip-path="url(#terminal-2755435435-line-7)">&#160;&#160;cd&#160;~/engagements/my-project</text><text class="terminal-2755435435-r1" x="1610.4" y="190.8" textLength="12.2" clip-path="url(#terminal-2755435435-line-7)">
</text><text class="terminal-2755435435-r2" x="0" y="215.2" textLength="793" clip-path="url(#terminal-2755435435-line-8)">&#160;&#160;uv&#160;run&#160;--project&#160;/root/praxis-realworld-eval/repo&#160;praxis&#160;init&#160;\</text><text class="terminal-2755435435-r1" x="1610.4" y="215.2" textLength="12.2" clip-path="url(#terminal-2755435435-line-8)">
</text><text class="terminal-2755435435-r2" x="0" y="239.6" textLength="524.6" clip-path="url(#terminal-2755435435-line-9)">&#160;&#160;&#160;&#160;--name&#160;&#x27;My&#160;Project&#x27;&#160;--methodology&#160;agile</text><text class="terminal-2755435435-r1" x="1610.4" y="239.6" textLength="12.2" clip-path="url(#terminal-2755435435-line-9)">
</text><text class="terminal-2755435435-r1" x="1610.4" y="264" textLength="12.2" clip-path="url(#terminal-2755435435-line-10)">
</text><text class="terminal-2755435435-r2" x="0" y="288.4" textLength="256.2" clip-path="url(#terminal-2755435435-line-11)">Configure&#160;OpenRouter:</text><text class="terminal-2755435435-r1" x="1610.4" y="288.4" textLength="12.2" clip-path="url(#terminal-2755435435-line-11)">
</text><text class="terminal-2755435435-r2" x="0" y="312.8" textLength="378.2" clip-path="url(#terminal-2755435435-line-12)">&#160;&#160;export&#160;OPENROUTER_API_KEY=...</text><text class="terminal-2755435435-r1" x="1610.4" y="312.8" textLength="12.2" clip-path="url(#terminal-2755435435-line-12)">
</text><text class="terminal-2755435435-r2" x="0" y="337.2" textLength="915" clip-path="url(#terminal-2755435435-line-13)">&#160;&#160;uv&#160;run&#160;--project&#160;/root/praxis-realworld-eval/repo&#160;praxis&#160;profile&#160;create&#160;\</text><text class="terminal-2755435435-r1" x="1610.4" y="337.2" textLength="12.2" clip-path="url(#terminal-2755435435-line-13)">
</text><text class="terminal-2755435435-r2" x="0" y="361.6" textLength="866.2" clip-path="url(#terminal-2755435435-line-14)">&#160;&#160;&#160;&#160;realworld&#160;--provider&#160;openrouter&#160;--model&#160;anthropic/claude-sonnet-4&#160;\</text><text class="terminal-2755435435-r1" x="1610.4" y="361.6" textLength="12.2" clip-path="url(#terminal-2755435435-line-14)">
</text><text class="terminal-2755435435-r2" x="0" y="386" textLength="610" clip-path="url(#terminal-2755435435-line-15)">&#160;&#160;&#160;&#160;--api-key-env&#160;OPENROUTER_API_KEY&#160;--set-default</text><text class="terminal-2755435435-r1" x="1610.4" y="386" textLength="12.2" clip-path="url(#terminal-2755435435-line-15)">
</text><text class="terminal-2755435435-r1" x="1610.4" y="410.4" textLength="12.2" clip-path="url(#terminal-2755435435-line-16)">
</text><text class="terminal-2755435435-r2" x="0" y="434.8" textLength="195.2" clip-path="url(#terminal-2755435435-line-17)">Launch&#160;this&#160;TUI:</text><text class="terminal-2755435435-r1" x="1610.4" y="434.8" textLength="12.2" clip-path="url(#terminal-2755435435-line-17)">
</text><text class="terminal-2755435435-r2" x="0" y="459.2" textLength="671" clip-path="url(#terminal-2755435435-line-18)">&#160;&#160;PRAXIS_HOME=/root/praxis-realworld-eval/praxis-home&#160;\</text><text class="terminal-2755435435-r1" x="1610.4" y="459.2" textLength="12.2" clip-path="url(#terminal-2755435435-line-18)">
</text><text class="terminal-2755435435-r2" x="0" y="483.6" textLength="805.2" clip-path="url(#terminal-2755435435-line-19)">&#160;&#160;&#160;&#160;uv&#160;run&#160;--project&#160;/root/praxis-realworld-eval/repo&#160;praxis&#160;tui&#160;\</text><text class="terminal-2755435435-r1" x="1610.4" y="483.6" textLength="12.2" clip-path="url(#terminal-2755435435-line-19)">
</text><text class="terminal-2755435435-r2" x="0" y="508" textLength="280.6" clip-path="url(#terminal-2755435435-line-20)">&#160;&#160;&#160;&#160;--engagement&#160;&lt;path&gt;</text><text class="terminal-2755435435-r1" x="1610.4" y="508" textLength="12.2" clip-path="url(#terminal-2755435435-line-20)">
</text><text class="terminal-2755435435-r1" x="1610.4" y="532.4" textLength="12.2" clip-path="url(#terminal-2755435435-line-21)">
</text><text class="terminal-2755435435-r2" x="0" y="556.8" textLength="719.8" clip-path="url(#terminal-2755435435-line-22)">v0.2.0&#160;avoids&#160;typing&#160;raw&#160;keys&#160;into&#160;the&#160;TUI.&#160;Put&#160;keys&#160;in&#160;the</text><text class="terminal-2755435435-r1" x="1610.4" y="556.8" textLength="12.2" clip-path="url(#terminal-2755435435-line-22)">
</text><text class="terminal-2755435435-r2" x="0" y="581.2" textLength="817.4" clip-path="url(#terminal-2755435435-line-23)">shell/service&#160;environment&#160;and&#160;store&#160;only&#160;env&#160;var&#160;names&#160;in&#160;profiles.</text><text class="terminal-2755435435-r1" x="1610.4" y="581.2" textLength="12.2" clip-path="url(#terminal-2755435435-line-23)">
</text><text class="terminal-2755435435-r1" x="1610.4" y="605.6" textLength="12.2" clip-path="url(#terminal-2755435435-line-24)">
</text><text class="terminal-2755435435-r1" x="1610.4" y="630" textLength="12.2" clip-path="url(#terminal-2755435435-line-25)">
</text><text class="terminal-2755435435-r1" x="1610.4" y="654.4" textLength="12.2" clip-path="url(#terminal-2755435435-line-26)">
</text><text class="terminal-2755435435-r1" x="1610.4" y="678.8" textLength="12.2" clip-path="url(#terminal-2755435435-line-27)">
</text><text class="terminal-2755435435-r1" x="1610.4" y="703.2" textLength="12.2" clip-path="url(#terminal-2755435435-line-28)">
</text><text class="terminal-2755435435-r1" x="1610.4" y="727.6" textLength="12.2" clip-path="url(#terminal-2755435435-line-29)">
</text><text class="terminal-2755435435-r1" x="1610.4" y="752" textLength="12.2" clip-path="url(#terminal-2755435435-line-30)">
</text><text class="terminal-2755435435-r1" x="1610.4" y="776.4" textLength="12.2" clip-path="url(#terminal-2755435435-line-31)">
</text><text class="terminal-2755435435-r1" x="1610.4" y="800.8" textLength="12.2" clip-path="url(#terminal-2755435435-line-32)">
</text><text class="terminal-2755435435-r1" x="1610.4" y="825.2" textLength="12.2" clip-path="url(#terminal-2755435435-line-33)">
</text><text class="terminal-2755435435-r1" x="1610.4" y="849.6" textLength="12.2" clip-path="url(#terminal-2755435435-line-34)">
</text><text class="terminal-2755435435-r1" x="1610.4" y="874" textLength="12.2" clip-path="url(#terminal-2755435435-line-35)">
</text><text class="terminal-2755435435-r1" x="1610.4" y="898.4" textLength="12.2" clip-path="url(#terminal-2755435435-line-36)">
</text><text class="terminal-2755435435-r1" x="1610.4" y="922.8" textLength="12.2" clip-path="url(#terminal-2755435435-line-37)">
</text><text class="terminal-2755435435-r1" x="1610.4" y="947.2" textLength="12.2" clip-path="url(#terminal-2755435435-line-38)">
</text><text class="terminal-2755435435-r5" x="0" y="971.6" textLength="36.6" clip-path="url(#terminal-2755435435-line-39)">&#160;1&#160;</text><text class="terminal-2755435435-r2" x="36.6" y="971.6" textLength="73.2" clip-path="url(#terminal-2755435435-line-39)">Queue&#160;</text><text class="terminal-2755435435-r5" x="109.8" y="971.6" textLength="36.6" clip-path="url(#terminal-2755435435-line-39)">&#160;2&#160;</text><text class="terminal-2755435435-r2" x="146.4" y="971.6" textLength="61" clip-path="url(#terminal-2755435435-line-39)">Chat&#160;</text><text class="terminal-2755435435-r5" x="207.4" y="971.6" textLength="36.6" clip-path="url(#terminal-2755435435-line-39)">&#160;3&#160;</text><text class="terminal-2755435435-r2" x="244" y="971.6" textLength="134.2" clip-path="url(#terminal-2755435435-line-39)">Engagement&#160;</text><text class="terminal-2755435435-r5" x="378.2" y="971.6" textLength="36.6" clip-path="url(#terminal-2755435435-line-39)">&#160;4&#160;</text><text class="terminal-2755435435-r2" x="414.8" y="971.6" textLength="73.2" clip-path="url(#terminal-2755435435-line-39)">Audit&#160;</text><text class="terminal-2755435435-r5" x="488" y="971.6" textLength="36.6" clip-path="url(#terminal-2755435435-line-39)">&#160;5&#160;</text><text class="terminal-2755435435-r2" x="524.6" y="971.6" textLength="97.6" clip-path="url(#terminal-2755435435-line-39)">Backlog&#160;</text><text class="terminal-2755435435-r5" x="622.2" y="971.6" textLength="36.6" clip-path="url(#terminal-2755435435-line-39)">&#160;6&#160;</text><text class="terminal-2755435435-r2" x="658.8" y="971.6" textLength="85.4" clip-path="url(#terminal-2755435435-line-39)">Config&#160;</text><text class="terminal-2755435435-r5" x="744.2" y="971.6" textLength="36.6" clip-path="url(#terminal-2755435435-line-39)">&#160;7&#160;</text><text class="terminal-2755435435-r2" x="780.8" y="971.6" textLength="73.2" clip-path="url(#terminal-2755435435-line-39)">Setup&#160;</text><text class="terminal-2755435435-r5" x="854" y="971.6" textLength="36.6" clip-path="url(#terminal-2755435435-line-39)">&#160;8&#160;</text><text class="terminal-2755435435-r2" x="890.6" y="971.6" textLength="134.2" clip-path="url(#terminal-2755435435-line-39)">Priorities&#160;</text><text class="terminal-2755435435-r5" x="1024.8" y="971.6" textLength="36.6" clip-path="url(#terminal-2755435435-line-39)">&#160;9&#160;</text><text class="terminal-2755435435-r2" x="1061.4" y="971.6" textLength="122" clip-path="url(#terminal-2755435435-line-39)">Artifacts&#160;</text><text class="terminal-2755435435-r5" x="1183.4" y="971.6" textLength="36.6" clip-path="url(#terminal-2755435435-line-39)">&#160;q&#160;</text><text class="terminal-2755435435-r2" x="1220" y="971.6" textLength="61" clip-path="url(#terminal-2755435435-line-39)">Quit&#160;</text><text class="terminal-2755435435-r5" x="1281" y="971.6" textLength="36.6" clip-path="url(#terminal-2755435435-line-39)">&#160;?&#160;</text><text class="terminal-2755435435-r2" x="1317.6" y="971.6" textLength="61" clip-path="url(#terminal-2755435435-line-39)">Help&#160;</text><text class="terminal-2755435435-r5" x="1378.6" y="971.6" textLength="36.6" clip-path="url(#terminal-2755435435-line-39)">&#160;w&#160;</text><text class="terminal-2755435435-r2" x="1415.2" y="971.6" textLength="48.8" clip-path="url(#terminal-2755435435-line-39)">Wake</text><text class="terminal-2755435435-r6" x="1464" y="971.6" textLength="12.2" clip-path="url(#terminal-2755435435-line-39)">▏</text><text class="terminal-2755435435-r5" x="1476.2" y="971.6" textLength="24.4" clip-path="url(#terminal-2755435435-line-39)">^p</text><text class="terminal-2755435435-r2" x="1500.6" y="971.6" textLength="97.6" clip-path="url(#terminal-2755435435-line-39)">&#160;palette</text>
    </g>
    </g>
</svg>
