<svg class="rich-terminal" viewBox="0 0 1629 1026.0" xmlns="http://www.w3.org/2000/svg">
    <!-- Generated with Rich https://www.textualize.io -->
    <style>

    @font-face {
        font-family: "Fira Code";
        src: local("FiraCode-Regular"),
                url("https://cdnjs.cloudflare.com/ajax/libs/firacode/6.2.0/woff2/FiraCode-Regular.woff2") format("woff2"),
                url("https://cdnjs.cloudflare.com/ajax/libs/firacode/6.2.0/woff/FiraCode-Regular.woff") format("woff");
        font-style: normal;
        font-weight: 400;
    }
    @font-face {
        font-family: "Fira Code";
        src: local("FiraCode-Bold"),
                url("https://cdnjs.cloudflare.com/ajax/libs/firacode/6.2.0/woff2/FiraCode-Bold.woff2") format("woff2"),
                url("https://cdnjs.cloudflare.com/ajax/libs/firacode/6.2.0/woff/FiraCode-Bold.woff") format("woff");
        font-style: bold;
        font-weight: 700;
    }

    .terminal-967530128-matrix {
        font-family: Fira Code, monospace;
        font-size: 20px;
        line-height: 24.4px;
        font-variant-east-asian: full-width;
    }

    .terminal-967530128-title {
        font-size: 18px;
        font-weight: bold;
        font-family: arial;
    }

    .terminal-967530128-r1 { fill: #c5c8c6 }
.terminal-967530128-r2 { fill: #e0e0e0 }
.terminal-967530128-r3 { fill: #a0a3a6 }
.terminal-967530128-r4 { fill: #e0e0e0;font-weight: bold }
.terminal-967530128-r5 { fill: #4a3920 }
.terminal-967530128-r6 { fill: #9e9e9e }
.terminal-967530128-r7 { fill: #ffa62b;font-weight: bold }
.terminal-967530128-r8 { fill: #495259 }
    </style>

    <defs>
    <clipPath id="terminal-967530128-clip-terminal">
      <rect x="0" y="0" width="1609.3999999999999" height="975.0" />
    </clipPath>
    <clipPath id="terminal-967530128-line-0">
    <rect x="0" y="1.5" width="1610.4" height="24.65"/>
            </clipPath>
<clipPath id="terminal-967530128-line-1">
    <rect x="0" y="25.9" width="1610.4" height="24.65"/>
            </clipPath>
<clipPath id="terminal-967530128-line-2">
    <rect x="0" y="50.3" width="1610.4" height="24.65"/>
            </clipPath>
<clipPath id="terminal-967530128-line-3">
    <rect x="0" y="74.7" width="1610.4" height="24.65"/>
            </clipPath>
<clipPath id="terminal-967530128-line-4">
    <rect x="0" y="99.1" width="1610.4" height="24.65"/>
            </clipPath>
<clipPath id="terminal-967530128-line-5">
    <rect x="0" y="123.5" width="1610.4" height="24.65"/>
            </clipPath>
<clipPath id="terminal-967530128-line-6">
    <rect x="0" y="147.9" width="1610.4" height="24.65"/>
            </clipPath>
<clipPath id="terminal-967530128-line-7">
    <rect x="0" y="172.3" width="1610.4" height="24.65"/>
            </clipPath>
<clipPath id="terminal-967530128-line-8">
    <rect x="0" y="196.7" width="1610.4" height="24.65"/>
            </clipPath>
<clipPath id="terminal-967530128-line-9">
    <rect x="0" y="221.1" width="1610.4" height="24.65"/>
            </clipPath>
<clipPath id="terminal-967530128-line-10">
    <rect x="0" y="245.5" width="1610.4" height="24.65"/>
            </clipPath>
<clipPath id="terminal-967530128-line-11">
    <rect x="0" y="269.9" width="1610.4" height="24.65"/>
            </clipPath>
<clipPath id="terminal-967530128-line-12">
    <rect x="0" y="294.3" width="1610.4" height="24.65"/>
            </clipPath>
<clipPath id="terminal-967530128-line-13">
    <rect x="0" y="318.7" width="1610.4" height="24.65"/>
            </clipPath>
<clipPath id="terminal-967530128-line-14">
    <rect x="0" y="343.1" width="1610.4" height="24.65"/>
            </clipPath>
<clipPath id="terminal-967530128-line-15">
    <rect x="0" y="367.5" width="1610.4" height="24.65"/>
            </clipPath>
<clipPath id="terminal-967530128-line-16">
    <rect x="0" y="391.9" width="1610.4" height="24.65"/>
            </clipPath>
<clipPath id="terminal-967530128-line-17">
    <rect x="0" y="416.3" width="1610.4" height="24.65"/>
            </clipPath>
<clipPath id="terminal-967530128-line-18">
    <rect x="0" y="440.7" width="1610.4" height="24.65"/>
            </clipPath>
<clipPath id="terminal-967530128-line-19">
    <rect x="0" y="465.1" width="1610.4" height="24.65"/>
            </clipPath>
<clipPath id="terminal-967530128-line-20">
    <rect x="0" y="489.5" width="1610.4" height="24.65"/>
            </clipPath>
<clipPath id="terminal-967530128-line-21">
    <rect x="0" y="513.9" width="1610.4" height="24.65"/>
            </clipPath>
<clipPath id="terminal-967530128-line-22">
    <rect x="0" y="538.3" width="1610.4" height="24.65"/>
            </clipPath>
<clipPath id="terminal-967530128-line-23">
    <rect x="0" y="562.7" width="1610.4" height="24.65"/>
            </clipPath>
<clipPath id="terminal-967530128-line-24">
    <rect x="0" y="587.1" width="1610.4" height="24.65"/>
            </clipPath>
<clipPath id="terminal-967530128-line-25">
    <rect x="0" y="611.5" width="1610.4" height="24.65"/>
            </clipPath>
<clipPath id="terminal-967530128-line-26">
    <rect x="0" y="635.9" width="1610.4" height="24.65"/>
            </clipPath>
<clipPath id="terminal-967530128-line-27">
    <rect x="0" y="660.3" width="1610.4" height="24.65"/>
            </clipPath>
<clipPath id="terminal-967530128-line-28">
    <rect x="0" y="684.7" width="1610.4" height="24.65"/>
            </clipPath>
<clipPath id="terminal-967530128-line-29">
    <rect x="0" y="709.1" width="1610.4" height="24.65"/>
            </clipPath>
<clipPath id="terminal-967530128-line-30">
    <rect x="0" y="733.5" width="1610.4" height="24.65"/>
            </clipPath>
<clipPath id="terminal-967530128-line-31">
    <rect x="0" y="757.9" width="1610.4" height="24.65"/>
            </clipPath>
<clipPath id="terminal-967530128-line-32">
    <rect x="0" y="782.3" width="1610.4" height="24.65"/>
            </clipPath>
<clipPath id="terminal-967530128-line-33">
    <rect x="0" y="806.7" width="1610.4" height="24.65"/>
            </clipPath>
<clipPath id="terminal-967530128-line-34">
    <rect x="0" y="831.1" width="1610.4" height="24.65"/>
            </clipPath>
<clipPath id="terminal-967530128-line-35">
    <rect x="0" y="855.5" width="1610.4" height="24.65"/>
            </clipPath>
<clipPath id="terminal-967530128-line-36">
    <rect x="0" y="879.9" width="1610.4" height="24.65"/>
            </clipPath>
<clipPath id="terminal-967530128-line-37">
    <rect x="0" y="904.3" width="1610.4" height="24.65"/>
            </clipPath>
<clipPath id="terminal-967530128-line-38">
    <rect x="0" y="928.7" width="1610.4" height="24.65"/>
            </clipPath>
    </defs>

    <rect fill="#292929" stroke="rgba(255,255,255,0.35)" stroke-width="1" x="1" y="1" width="1627" height="1024" rx="8"/><text class="terminal-967530128-title" fill="#c5c8c6" text-anchor="middle" x="813" y="27">Praxis</text>
            <g transform="translate(26,22)">
            <circle cx="0" cy="0" r="7" fill="#ff5f57"/>
            <circle cx="22" cy="0" r="7" fill="#febc2e"/>
            <circle cx="44" cy="0" r="7" fill="#28c840"/>
            </g>
        
    <g transform="translate(9, 41)" clip-path="url(#terminal-967530128-clip-terminal)">
    <rect fill="#242f38" x="0" y="1.5" width="12.2" height="24.65" shape-rendering="crispEdges"/><rect fill="#242f38" x="12.2" y="1.5" width="12.2" height="24.65" shape-rendering="crispEdges"/><rect fill="#242f38" x="24.4" y="1.5" width="61" height="24.65" shape-rendering="crispEdges"/><rect fill="#242f38" x="85.4" y="1.5" width="12.2" height="24.65" shape-rendering="crispEdges"/><rect fill="#242f38" x="97.6" y="1.5" width="475.8" height="24.65" shape-rendering="crispEdges"/><rect fill="#242f38" x="573.4" y="1.5" width="73.2" height="24.65" shape-rendering="crispEdges"/><rect fill="#242f38" x="646.6" y="1.5" width="36.6" height="24.65" shape-rendering="crispEdges"/><rect fill="#242f38" x="683.2" y="1.5" width="329.4" height="24.65" shape-rendering="crispEdges"/><rect fill="#242f38" x="1012.6" y="1.5" width="475.8" height="24.65" shape-rendering="crispEdges"/><rect fill="#242f38" x="1488.4" y="1.5" width="12.2" height="24.65" shape-rendering="crispEdges"/><rect fill="#242f38" x="1500.6" y="1.5" width="0" height="24.65" shape-rendering="crispEdges"/><rect fill="#242f38" x="1500.6" y="1.5" width="97.6" height="24.65" shape-rendering="crispEdges"/><rect fill="#242f38" x="1598.2" y="1.5" width="12.2" height="24.65" shape-rendering="crispEdges"/><rect fill="#1e1e1e" x="0" y="25.9" width="1610.4" height="24.65" shape-rendering="crispEdges"/><rect fill="#1e1e1e" x="0" y="50.3" width="24.4" height="24.65" shape-rendering="crispEdges"/><rect fill="#1e1e1e" x="24.4" y="50.3" width="329.4" height="24.65" shape-rendering="crispEdges"/><rect fill="#1e1e1e" x="353.8" y="50.3" width="1232.2" height="24.65" shape-rendering="crispEdges"/><rect fill="#1e1e1e" x="1586" y="50.3" width="24.4" height="24.65" shape-rendering="crispEdges"/><rect fill="#1e1e1e" x="0" y="74.7" width="24.4" height="24.65" shape-rendering="crispEdges"/><rect fill="#1e1e1e" x="24.4" y="74.7" width="634.4" height="24.65" shape-rendering="crispEdges"/><rect fill="#1e1e1e" x="658.8" y="74.7" width="927.2" height="24.65" shape-rendering="crispEdges"/><rect fill="#1e1e1e" x="1586" y="74.7" width="24.4" height="24.65" shape-rendering="crispEdges"/><rect fill="#1e1e1e" x="0" y="99.1" width="1610.4" height="24.65" shape-rendering="crispEdges"/><rect fill="#1e1e1e" x="0" y="123.5" width="1610.4" height="24.65" shape-rendering="crispEdges"/><rect fill="#1e1e1e" x="0" y="147.9" width="1610.4" height="24.65" shape-rendering="crispEdges"/><rect fill="#1e1e1e" x="0" y="172.3" width="24.4" height="24.65" shape-rendering="crispEdges"/><rect fill="#1e1e1e" x="24.4" y="172.3" width="329.4" height="24.65" shape-rendering="crispEdges"/><rect fill="#1e1e1e" x="353.8" y="172.3" width="1232.2" height="24.65" shape-rendering="crispEdges"/><rect fill="#1e1e1e" x="1586" y="172.3" width="24.4" height="24.65" shape-rendering="crispEdges"/><rect fill="#1e1e1e" x="0" y="196.7" width="24.4" height="24.65" shape-rendering="crispEdges"/><rect fill="#1e1e1e" x="24.4" y="196.7" width="646.6" height="24.65" shape-rendering="crispEdges"/><rect fill="#1e1e1e" x="671" y="196.7" width="366" height="24.65" shape-rendering="crispEdges"/><rect fill="#1e1e1e" x="1037" y="196.7" width="549" height="24.65" shape-rendering="crispEdges"/><rect fill="#1e1e1e" x="1586" y="196.7" width="24.4" height="24.65" shape-rendering="crispEdges"/><rect fill="#1e1e1e" x="0" y="221.1" width="24.4" height="24.65" shape-rendering="crispEdges"/><rect fill="#1e1e1e" x="24.4" y="221.1" width="890.6" height="24.65" shape-rendering="crispEdges"/><rect fill="#1e1e1e" x="915" y="221.1" width="366" height="24.65" shape-rendering="crispEdges"/><rect fill="#1e1e1e" x="1281" y="221.1" width="305" height="24.65" shape-rendering="crispEdges"/><rect fill="#1e1e1e" x="1586" y="221.1" width="24.4" height="24.65" shape-rendering="crispEdges"/><rect fill="#1e1e1e" x="0" y="245.5" width="24.4" height="24.65" shape-rendering="crispEdges"/><rect fill="#1e1e1e" x="24.4" y="245.5" width="695.4" height="24.65" shape-rendering="crispEdges"/><rect fill="#1e1e1e" x="719.8" y="245.5" width="366" height="24.65" shape-rendering="crispEdges"/><rect fill="#1e1e1e" x="1085.8" y="245.5" width="500.2" height="24.65" shape-rendering="crispEdges"/><rect fill="#1e1e1e" x="1586" y="245.5" width="24.4" height="24.65" shape-rendering="crispEdges"/><rect fill="#1e1e1e" x="0" y="269.9" width="1610.4" height="24.65" shape-rendering="crispEdges"/><rect fill="#1e1e1e" x="0" y="294.3" width="1610.4" height="24.65" shape-rendering="crispEdges"/><rect fill="#1e1e1e" x="0" y="318.7" width="1610.4" height="24.65" shape-rendering="crispEdges"/><rect fill="#1e1e1e" x="0" y="343.1" width="24.4" height="24.65" shape-rendering="crispEdges"/><rect fill="#1e1e1e" x="24.4" y="343.1" width="256.2" height="24.65" shape-rendering="crispEdges"/><rect fill="#1e1e1e" x="280.6" y="343.1" width="1305.4" height="24.65" shape-rendering="crispEdges"/><rect fill="#1e1e1e" x="1586" y="343.1" width="24.4" height="24.65" shape-rendering="crispEdges"/><rect fill="#1e1e1e" x="0" y="367.5" width="24.4" height="24.65" shape-rendering="crispEdges"/><rect fill="#1e1e1e" x="24.4" y="367.5" width="48.8" height="24.65" shape-rendering="crispEdges"/><rect fill="#1e1e1e" x="73.2" y="367.5" width="463.6" height="24.65" shape-rendering="crispEdges"/><rect fill="#1e1e1e" x="536.8" y="367.5" width="183" height="24.65" shape-rendering="crispEdges"/><rect fill="#1e1e1e" x="719.8" y="367.5" width="866.2" height="24.65" shape-rendering="crispEdges"/><rect fill="#1e1e1e" x="1586" y="367.5" width="24.4" height="24.65" shape-rendering="crispEdges"/><rect fill="#1e1e1e" x="0" y="391.9" width="24.4" height="24.65" shape-rendering="crispEdges"/><rect fill="#1e1e1e" x="24.4" y="391.9" width="48.8" height="24.65" shape-rendering="crispEdges"/><rect fill="#1e1e1e" x="73.2" y="391.9" width="658.8" height="24.65" shape-rendering="crispEdges"/><rect fill="#1e1e1e" x="732" y="391.9" width="183" height="24.65" shape-rendering="crispEdges"/><rect fill="#1e1e1e" x="915" y="391.9" width="671" height="24.65" shape-rendering="crispEdges"/><rect fill="#1e1e1e" x="1586" y="391.9" width="24.4" height="24.65" shape-rendering="crispEdges"/><rect fill="#1e1e1e" x="0" y="416.3" width="24.4" height="24.65" shape-rendering="crispEdges"/><rect fill="#1e1e1e" x="24.4" y="416.3" width="48.8" height="24.65" shape-rendering="crispEdges"/><rect fill="#1e1e1e" x="73.2" y="416.3" width="646.6" height="24.65" shape-rendering="crispEdges"/><rect fill="#1e1e1e" x="719.8" y="416.3" width="183" height="24.65" shape-rendering="crispEdges"/><rect fill="#1e1e1e" x="902.8" y="416.3" width="683.2" height="24.65" shape-rendering="crispEdges"/><rect fill="#1e1e1e" x="1586" y="416.3" width="24.4" height="24.65" shape-rendering="crispEdges"/><rect fill="#1e1e1e" x="0" y="440.7" width="1610.4" height="24.65" shape-rendering="crispEdges"/><rect fill="#1e1e1e" x="0" y="465.1" width="1610.4" height="24.65" shape-rendering="crispEdges"/><rect fill="#1e1e1e" x="0" y="489.5" width="1610.4" height="24.65" shape-rendering="crispEdges"/><rect fill="#1e1e1e" x="0" y="513.9" width="24.4" height="24.65" shape-rendering="crispEdges"/><rect fill="#1e1e1e" x="24.4" y="513.9" width="512.4" height="24.65" shape-rendering="crispEdges"/><rect fill="#1e1e1e" x="536.8" y="513.9" width="1049.2" height="24.65" shape-rendering="crispEdges"/><rect fill="#1e1e1e" x="1586" y="513.9" width="24.4" height="24.65" shape-rendering="crispEdges"/><rect fill="#1e1e1e" x="0" y="538.3" width="24.4" height="24.65" shape-rendering="crispEdges"/><rect fill="#1e1e1e" x="24.4" y="538.3" width="829.6" height="24.65" shape-rendering="crispEdges"/><rect fill="#1e1e1e" x="854" y="538.3" width="195.2" height="24.65" shape-rendering="crispEdges"/><rect fill="#1e1e1e" x="1049.2" y="538.3" width="536.8" height="24.65" shape-rendering="crispEdges"/><rect fill="#1e1e1e" x="1586" y="538.3" width="24.4" height="24.65" shape-rendering="crispEdges"/><rect fill="#1e1e1e" x="0" y="562.7" width="1610.4" height="24.65" shape-rendering="crispEdges"/><rect fill="#1e1e1e" x="0" y="587.1" width="1610.4" height="24.65" shape-rendering="crispEdges"/><rect fill="#1e1e1e" x="0" y="611.5" width="1610.4" height="24.65" shape-rendering="crispEdges"/><rect fill="#1e1e1e" x="0" y="635.9" width="1610.4" height="24.65" shape-rendering="crispEdges"/><rect fill="#1e1e1e" x="0" y="660.3" width="1610.4" height="24.65" shape-rendering="crispEdges"/><rect fill="#1e1e1e" x="0" y="684.7" width="1610.4" height="24.65" shape-rendering="crispEdges"/><rect fill="#1e1e1e" x="0" y="709.1" width="1610.4" height="24.65" shape-rendering="crispEdges"/><rect fill="#1e1e1e" x="0" y="733.5" width="1610.4" height="24.65" shape-rendering="crispEdges"/><rect fill="#1e1e1e" x="0" y="757.9" width="1610.4" height="24.65" shape-rendering="crispEdges"/><rect fill="#1e1e1e" x="0" y="782.3" width="1610.4" height="24.65" shape-rendering="crispEdges"/><rect fill="#1e1e1e" x="0" y="806.7" width="1610.4" height="24.65" shape-rendering="crispEdges"/><rect fill="#1e1e1e" x="0" y="831.1" width="1610.4" height="24.65" shape-rendering="crispEdges"/><rect fill="#1e1e1e" x="0" y="855.5" width="1610.4" height="24.65" shape-rendering="crispEdges"/><rect fill="#1e1e1e" x="0" y="879.9" width="1610.4" height="24.65" shape-rendering="crispEdges"/><rect fill="#1e1e1e" x="0" y="904.3" width="1610.4" height="24.65" shape-rendering="crispEdges"/><rect fill="#1e1e1e" x="0" y="928.7" width="1610.4" height="24.65" shape-rendering="crispEdges"/><rect fill="#242f38" x="0" y="953.1" width="36.6" height="24.65" shape-rendering="crispEdges"/><rect fill="#242f38" x="36.6" y="953.1" width="97.6" height="24.65" shape-rendering="crispEdges"/><rect fill="#242f38" x="134.2" y="953.1" width="36.6" height="24.65" shape-rendering="crispEdges"/><rect fill="#242f38" x="170.8" y="953.1" width="73.2" height="24.65" shape-rendering="crispEdges"/><rect fill="#242f38" x="244" y="953.1" width="36.6" height="24.65" shape-rendering="crispEdges"/><rect fill="#242f38" x="280.6" y="953.1" width="61" height="24.65" shape-rendering="crispEdges"/><rect fill="#242f38" x="341.6" y="953.1" width="36.6" height="24.65" shape-rendering="crispEdges"/><rect fill="#242f38" x="378.2" y="953.1" width="134.2" height="24.65" shape-rendering="crispEdges"/><rect fill="#242f38" x="512.4" y="953.1" width="36.6" height="24.65" shape-rendering="crispEdges"/><rect fill="#242f38" x="549" y="953.1" width="73.2" height="24.65" shape-rendering="crispEdges"/><rect fill="#242f38" x="622.2" y="953.1" width="36.6" height="24.65" shape-rendering="crispEdges"/><rect fill="#242f38" x="658.8" y="953.1" width="97.6" height="24.65" shape-rendering="crispEdges"/><rect fill="#242f38" x="756.4" y="953.1" width="36.6" height="24.65" shape-rendering="crispEdges"/><rect fill="#242f38" x="793" y="953.1" width="85.4" height="24.65" shape-rendering="crispEdges"/><rect fill="#242f38" x="878.4" y="953.1" width="36.6" height="24.65" shape-rendering="crispEdges"/><rect fill="#242f38" x="915" y="953.1" width="73.2" height="24.65" shape-rendering="crispEdges"/><rect fill="#242f38" x="988.2" y="953.1" width="36.6" height="24.65" shape-rendering="crispEdges"/><rect fill="#242f38" x="1024.8" y="953.1" width="134.2" height="24.65" shape-rendering="crispEdges"/><rect fill="#242f38" x="1159" y="953.1" width="36.6" height="24.65" shape-rendering="crispEdges"/><rect fill="#242f38" x="1195.6" y="953.1" width="122" height="24.65" shape-rendering="crispEdges"/><rect fill="#242f38" x="1317.6" y="953.1" width="36.6" height="24.65" shape-rendering="crispEdges"/><rect fill="#242f38" x="1354.2" y="953.1" width="61" height="24.65" shape-rendering="crispEdges"/><rect fill="#242f38" x="1415.2" y="953.1" width="36.6" height="24.65" shape-rendering="crispEdges"/><rect fill="#242f38" x="1451.8" y="953.1" width="12.2" height="24.65" shape-rendering="crispEdges"/><rect fill="#242f38" x="1464" y="953.1" width="12.2" height="24.65" shape-rendering="crispEdges"/><rect fill="#242f38" x="1476.2" y="953.1" width="24.4" height="24.65" shape-rendering="crispEdges"/><rect fill="#242f38" x="1500.6" y="953.1" width="12.2" height="24.65" shape-rendering="crispEdges"/><rect fill="#242f38" x="1512.8" y="953.1" width="85.4" height="24.65" shape-rendering="crispEdges"/><rect fill="#242f38" x="1598.2" y="953.1" width="12.2" height="24.65" shape-rendering="crispEdges"/>
    <g class="terminal-967530128-matrix">
    <text class="terminal-967530128-r2" x="12.2" y="20" textLength="12.2" clip-path="url(#terminal-967530128-line-0)">⭘</text><text class="terminal-967530128-r2" x="573.4" y="20" textLength="73.2" clip-path="url(#terminal-967530128-line-0)">Praxis</text><text class="terminal-967530128-r3" x="646.6" y="20" textLength="36.6" clip-path="url(#terminal-967530128-line-0)">&#160;—&#160;</text><text class="terminal-967530128-r3" x="683.2" y="20" textLength="329.4" clip-path="url(#terminal-967530128-line-0)">Agent-Led&#160;Business&#160;Analysis</text><text class="terminal-967530128-r1" x="1610.4" y="20" textLength="12.2" clip-path="url(#terminal-967530128-line-0)">
</text><text class="terminal-967530128-r1" x="1610.4" y="44.4" textLength="12.2" clip-path="url(#terminal-967530128-line-1)">
</text><text class="terminal-967530128-r4" x="24.4" y="68.8" textLength="329.4" clip-path="url(#terminal-967530128-line-2)">Top&#160;critical&#160;open&#160;questions</text><text class="terminal-967530128-r1" x="1610.4" y="68.8" textLength="12.2" clip-path="url(#terminal-967530128-line-2)">
</text><text class="terminal-967530128-r2" x="24.4" y="93.2" textLength="634.4" clip-path="url(#terminal-967530128-line-3)">&#160;&#160;-&#160;[c00e636e]&#160;What&#160;is&#160;the&#160;explicit&#160;launch&#160;deadline?</text><text class="terminal-967530128-r1" x="1610.4" y="93.2" textLength="12.2" clip-path="url(#terminal-967530128-line-3)">
</text><text class="terminal-967530128-r1" x="1610.4" y="117.6" textLength="12.2" clip-path="url(#terminal-967530128-line-4)">
</text><text class="terminal-967530128-r5" x="0" y="142" textLength="1610.4" clip-path="url(#terminal-967530128-line-5)">▁▁▁▁▁▁▁▁▁▁▁▁▁▁▁▁▁▁▁▁▁▁▁▁▁▁▁▁▁▁▁▁▁▁▁▁▁▁▁▁▁▁▁▁▁▁▁▁▁▁▁▁▁▁▁▁▁▁▁▁▁▁▁▁▁▁▁▁▁▁▁▁▁▁▁▁▁▁▁▁▁▁▁▁▁▁▁▁▁▁▁▁▁▁▁▁▁▁▁▁▁▁▁▁▁▁▁▁▁▁▁▁▁▁▁▁▁▁▁▁▁▁▁▁▁▁▁▁▁▁▁▁</text><text class="terminal-967530128-r1" x="1610.4" y="142" textLength="12.2" clip-path="url(#terminal-967530128-line-5)">
</text><text class="terminal-967530128-r1" x="1610.4" y="166.4" textLength="12.2" clip-path="url(#terminal-967530128-line-6)">
</text><text class="terminal-967530128-r4" x="24.4" y="190.8" textLength="329.4" clip-path="url(#terminal-967530128-line-7)">Oldest&#160;unanswered&#160;questions</text><text class="terminal-967530128-r1" x="1610.4" y="190.8" textLength="12.2" clip-path="url(#terminal-967530128-line-7)">
</text><text class="terminal-967530128-r2" x="24.4" y="215.2" textLength="646.6" clip-path="url(#terminal-967530128-line-8)">&#160;&#160;-&#160;[critical]&#160;What&#160;is&#160;the&#160;explicit&#160;launch&#160;deadline?&#160;</text><text class="terminal-967530128-r6" x="671" y="215.2" textLength="366" clip-path="url(#terminal-967530128-line-8)">(since&#160;2026-05-17T21:34+00:00)</text><text class="terminal-967530128-r1" x="1610.4" y="215.2" textLength="12.2" clip-path="url(#terminal-967530128-line-8)">
</text><text class="terminal-967530128-r2" x="24.4" y="239.6" textLength="890.6" clip-path="url(#terminal-967530128-line-9)">&#160;&#160;-&#160;[high]&#160;Should&#160;partial&#160;application&#160;progress&#160;auto-save&#160;across&#160;devices?&#160;</text><text class="terminal-967530128-r6" x="915" y="239.6" textLength="366" clip-path="url(#terminal-967530128-line-9)">(since&#160;2026-05-17T21:34+00:00)</text><text class="terminal-967530128-r1" x="1610.4" y="239.6" textLength="12.2" clip-path="url(#terminal-967530128-line-9)">
</text><text class="terminal-967530128-r2" x="24.4" y="264" textLength="695.4" clip-path="url(#terminal-967530128-line-10)">&#160;&#160;-&#160;[medium]&#160;What&#x27;s&#160;our&#160;DTI&#160;threshold&#160;for&#160;auto-approval?&#160;</text><text class="terminal-967530128-r6" x="719.8" y="264" textLength="366" clip-path="url(#terminal-967530128-line-10)">(since&#160;2026-05-17T21:34+00:00)</text><text class="terminal-967530128-r1" x="1610.4" y="264" textLength="12.2" clip-path="url(#terminal-967530128-line-10)">
</text><text class="terminal-967530128-r1" x="1610.4" y="288.4" textLength="12.2" clip-path="url(#terminal-967530128-line-11)">
</text><text class="terminal-967530128-r5" x="0" y="312.8" textLength="1610.4" clip-path="url(#terminal-967530128-line-12)">▁▁▁▁▁▁▁▁▁▁▁▁▁▁▁▁▁▁▁▁▁▁▁▁▁▁▁▁▁▁▁▁▁▁▁▁▁▁▁▁▁▁▁▁▁▁▁▁▁▁▁▁▁▁▁▁▁▁▁▁▁▁▁▁▁▁▁▁▁▁▁▁▁▁▁▁▁▁▁▁▁▁▁▁▁▁▁▁▁▁▁▁▁▁▁▁▁▁▁▁▁▁▁▁▁▁▁▁▁▁▁▁▁▁▁▁▁▁▁▁▁▁▁▁▁▁▁▁▁▁▁▁</text><text class="terminal-967530128-r1" x="1610.4" y="312.8" textLength="12.2" clip-path="url(#terminal-967530128-line-12)">
</text><text class="terminal-967530128-r1" x="1610.4" y="337.2" textLength="12.2" clip-path="url(#terminal-967530128-line-13)">
</text><text class="terminal-967530128-r4" x="24.4" y="361.6" textLength="256.2" clip-path="url(#terminal-967530128-line-14)">Top&#160;active&#160;work&#160;items</text><text class="terminal-967530128-r1" x="1610.4" y="361.6" textLength="12.2" clip-path="url(#terminal-967530128-line-14)">
</text><text class="terminal-967530128-r2" x="24.4" y="386" textLength="48.8" clip-path="url(#terminal-967530128-line-15)">&#160;&#160;-&#160;</text><text class="terminal-967530128-r2" x="73.2" y="386" textLength="463.6" clip-path="url(#terminal-967530128-line-15)">&#160;Follow&#160;up&#160;on&#160;launch&#160;deadline&#160;(Alice)&#160;</text><text class="terminal-967530128-r6" x="536.8" y="386" textLength="183" clip-path="url(#terminal-967530128-line-15)">(human,&#160;queued)</text><text class="terminal-967530128-r1" x="1610.4" y="386" textLength="12.2" clip-path="url(#terminal-967530128-line-15)">
</text><text class="terminal-967530128-r2" x="24.4" y="410.4" textLength="48.8" clip-path="url(#terminal-967530128-line-16)">&#160;&#160;-&#160;</text><text class="terminal-967530128-r2" x="73.2" y="410.4" textLength="658.8" clip-path="url(#terminal-967530128-line-16)">&#160;Interview&#160;Priya:&#160;doc&#160;requirements&#160;by&#160;employment&#160;type&#160;</text><text class="terminal-967530128-r6" x="732" y="410.4" textLength="183" clip-path="url(#terminal-967530128-line-16)">(human,&#160;queued)</text><text class="terminal-967530128-r1" x="1610.4" y="410.4" textLength="12.2" clip-path="url(#terminal-967530128-line-16)">
</text><text class="terminal-967530128-r2" x="24.4" y="434.8" textLength="48.8" clip-path="url(#terminal-967530128-line-17)">&#160;&#160;-&#160;</text><text class="terminal-967530128-r2" x="73.2" y="434.8" textLength="646.6" clip-path="url(#terminal-967530128-line-17)">&#160;Elicit&#160;drafts&#160;for&#160;spec:&#160;MVP&#160;functional&#160;requirements&#160;</text><text class="terminal-967530128-r6" x="719.8" y="434.8" textLength="183" clip-path="url(#terminal-967530128-line-17)">(agent,&#160;queued)</text><text class="terminal-967530128-r1" x="1610.4" y="434.8" textLength="12.2" clip-path="url(#terminal-967530128-line-17)">
</text><text class="terminal-967530128-r1" x="1610.4" y="459.2" textLength="12.2" clip-path="url(#terminal-967530128-line-18)">
</text><text class="terminal-967530128-r5" x="0" y="483.6" textLength="1610.4" clip-path="url(#terminal-967530128-line-19)">▁▁▁▁▁▁▁▁▁▁▁▁▁▁▁▁▁▁▁▁▁▁▁▁▁▁▁▁▁▁▁▁▁▁▁▁▁▁▁▁▁▁▁▁▁▁▁▁▁▁▁▁▁▁▁▁▁▁▁▁▁▁▁▁▁▁▁▁▁▁▁▁▁▁▁▁▁▁▁▁▁▁▁▁▁▁▁▁▁▁▁▁▁▁▁▁▁▁▁▁▁▁▁▁▁▁▁▁▁▁▁▁▁▁▁▁▁▁▁▁▁▁▁▁▁▁▁▁▁▁▁▁</text><text class="terminal-967530128-r1" x="1610.4" y="483.6" textLength="12.2" clip-path="url(#terminal-967530128-line-19)">
</text><text class="terminal-967530128-r1" x="1610.4" y="508" textLength="12.2" clip-path="url(#terminal-967530128-line-20)">
</text><text class="terminal-967530128-r4" x="24.4" y="532.4" textLength="512.4" clip-path="url(#terminal-967530128-line-21)">Insufficient&#160;artifacts&#160;needing&#160;elicitation</text><text class="terminal-967530128-r1" x="1610.4" y="532.4" textLength="12.2" clip-path="url(#terminal-967530128-line-21)">
</text><text class="terminal-967530128-r2" x="24.4" y="556.8" textLength="829.6" clip-path="url(#terminal-967530128-line-22)">&#160;&#160;-&#160;spec:&#160;MVP&#160;functional&#160;requirements&#160;for&#160;online&#160;personal&#160;loan&#160;flow&#160;</text><text class="terminal-967530128-r6" x="854" y="556.8" textLength="195.2" clip-path="url(#terminal-967530128-line-22)">(demo-spec.json)</text><text class="terminal-967530128-r1" x="1610.4" y="556.8" textLength="12.2" clip-path="url(#terminal-967530128-line-22)">
</text><text class="terminal-967530128-r1" x="1610.4" y="581.2" textLength="12.2" clip-path="url(#terminal-967530128-line-23)">
</text><text class="terminal-967530128-r5" x="0" y="605.6" textLength="1610.4" clip-path="url(#terminal-967530128-line-24)">▁▁▁▁▁▁▁▁▁▁▁▁▁▁▁▁▁▁▁▁▁▁▁▁▁▁▁▁▁▁▁▁▁▁▁▁▁▁▁▁▁▁▁▁▁▁▁▁▁▁▁▁▁▁▁▁▁▁▁▁▁▁▁▁▁▁▁▁▁▁▁▁▁▁▁▁▁▁▁▁▁▁▁▁▁▁▁▁▁▁▁▁▁▁▁▁▁▁▁▁▁▁▁▁▁▁▁▁▁▁▁▁▁▁▁▁▁▁▁▁▁▁▁▁▁▁▁▁▁▁▁▁</text><text class="terminal-967530128-r1" x="1610.4" y="605.6" textLength="12.2" clip-path="url(#terminal-967530128-line-24)">
</text><text class="terminal-967530128-r1" x="1610.4" y="630" textLength="12.2" clip-path="url(#terminal-967530128-line-25)">
</text><text class="terminal-967530128-r1" x="1610.4" y="654.4" textLength="12.2" clip-path="url(#terminal-967530128-line-26)">
</text><text class="terminal-967530128-r1" x="1610.4" y="678.8" textLength="12.2" clip-path="url(#terminal-967530128-line-27)">
</text><text class="terminal-967530128-r1" x="1610.4" y="703.2" textLength="12.2" clip-path="url(#terminal-967530128-line-28)">
</text><text class="terminal-967530128-r1" x="1610.4" y="727.6" textLength="12.2" clip-path="url(#terminal-967530128-line-29)">
</text><text class="terminal-967530128-r1" x="1610.4" y="752" textLength="12.2" clip-path="url(#terminal-967530128-line-30)">
</text><text class="terminal-967530128-r1" x="1610.4" y="776.4" textLength="12.2" clip-path="url(#terminal-967530128-line-31)">
</text><text class="terminal-967530128-r1" x="1610.4" y="800.8" textLength="12.2" clip-path="url(#terminal-967530128-line-32)">
</text><text class="terminal-967530128-r1" x="1610.4" y="825.2" textLength="12.2" clip-path="url(#terminal-967530128-line-33)">
</text><text class="terminal-967530128-r1" x="1610.4" y="849.6" textLength="12.2" clip-path="url(#terminal-967530128-line-34)">
</text><text class="terminal-967530128-r1" x="1610.4" y="874" textLength="12.2" clip-path="url(#terminal-967530128-line-35)">
</text><text class="terminal-967530128-r1" x="1610.4" y="898.4" textLength="12.2" clip-path="url(#terminal-967530128-line-36)">
</text><text class="terminal-967530128-r1" x="1610.4" y="922.8" textLength="12.2" clip-path="url(#terminal-967530128-line-37)">
</text><text class="terminal-967530128-r1" x="1610.4" y="947.2" textLength="12.2" clip-path="url(#terminal-967530128-line-38)">
</text><text class="terminal-967530128-r7" x="0" y="971.6" textLength="36.6" clip-path="url(#terminal-967530128-line-39)">&#160;r&#160;</text><text class="terminal-967530128-r2" x="36.6" y="971.6" textLength="97.6" clip-path="url(#terminal-967530128-line-39)">Refresh&#160;</text><text class="terminal-967530128-r7" x="134.2" y="971.6" textLength="36.6" clip-path="url(#terminal-967530128-line-39)">&#160;1&#160;</text><text class="terminal-967530128-r2" x="170.8" y="971.6" textLength="73.2" clip-path="url(#terminal-967530128-line-39)">Queue&#160;</text><text class="terminal-967530128-r7" x="244" y="971.6" textLength="36.6" clip-path="url(#terminal-967530128-line-39)">&#160;2&#160;</text><text class="terminal-967530128-r2" x="280.6" y="971.6" textLength="61" clip-path="url(#terminal-967530128-line-39)">Chat&#160;</text><text class="terminal-967530128-r7" x="341.6" y="971.6" textLength="36.6" clip-path="url(#terminal-967530128-line-39)">&#160;3&#160;</text><text class="terminal-967530128-r2" x="378.2" y="971.6" textLength="134.2" clip-path="url(#terminal-967530128-line-39)">Engagement&#160;</text><text class="terminal-967530128-r7" x="512.4" y="971.6" textLength="36.6" clip-path="url(#terminal-967530128-line-39)">&#160;4&#160;</text><text class="terminal-967530128-r2" x="549" y="971.6" textLength="73.2" clip-path="url(#terminal-967530128-line-39)">Audit&#160;</text><text class="terminal-967530128-r7" x="622.2" y="971.6" textLength="36.6" clip-path="url(#terminal-967530128-line-39)">&#160;5&#160;</text><text class="terminal-967530128-r2" x="658.8" y="971.6" textLength="97.6" clip-path="url(#terminal-967530128-line-39)">Backlog&#160;</text><text class="terminal-967530128-r7" x="756.4" y="971.6" textLength="36.6" clip-path="url(#terminal-967530128-line-39)">&#160;6&#160;</text><text class="terminal-967530128-r2" x="793" y="971.6" textLength="85.4" clip-path="url(#terminal-967530128-line-39)">Config&#160;</text><text class="terminal-967530128-r7" x="878.4" y="971.6" textLength="36.6" clip-path="url(#terminal-967530128-line-39)">&#160;7&#160;</text><text class="terminal-967530128-r2" x="915" y="971.6" textLength="73.2" clip-path="url(#terminal-967530128-line-39)">Setup&#160;</text><text class="terminal-967530128-r7" x="988.2" y="971.6" textLength="36.6" clip-path="url(#terminal-967530128-line-39)">&#160;8&#160;</text><text class="terminal-967530128-r2" x="1024.8" y="971.6" textLength="134.2" clip-path="url(#terminal-967530128-line-39)">Priorities&#160;</text><text class="terminal-967530128-r7" x="1159" y="971.6" textLength="36.6" clip-path="url(#terminal-967530128-line-39)">&#160;9&#160;</text><text class="terminal-967530128-r2" x="1195.6" y="971.6" textLength="122" clip-path="url(#terminal-967530128-line-39)">Artifacts&#160;</text><text class="terminal-967530128-r7" x="1317.6" y="971.6" textLength="36.6" clip-path="url(#terminal-967530128-line-39)">&#160;q&#160;</text><text class="terminal-967530128-r2" x="1354.2" y="971.6" textLength="61" clip-path="url(#terminal-967530128-line-39)">Quit&#160;</text><text class="terminal-967530128-r7" x="1415.2" y="971.6" textLength="36.6" clip-path="url(#terminal-967530128-line-39)">&#160;?&#160;</text><text class="terminal-967530128-r2" x="1451.8" y="971.6" textLength="12.2" clip-path="url(#terminal-967530128-line-39)">H</text><text class="terminal-967530128-r8" x="1464" y="971.6" textLength="12.2" clip-path="url(#terminal-967530128-line-39)">▏</text><text class="terminal-967530128-r7" x="1476.2" y="971.6" textLength="24.4" clip-path="url(#terminal-967530128-line-39)">^p</text><text class="terminal-967530128-r2" x="1512.8" y="971.6" textLength="85.4" clip-path="url(#terminal-967530128-line-39)">palette</text>
    </g>
    </g>
</svg>
